<?xml version="1.0" encoding="utf-8"?>
<!-- Generator: Adobe Illustrator 25.1.0, SVG Export Plug-In . SVG Version: 6.00 Build 0)  -->
<svg version="1.1" id="Layer_1" xmlns="http://www.w3.org/2000/svg" xmlns:xlink="http://www.w3.org/1999/xlink" x="0px" y="0px"
	 viewBox="0 0 1440 1024" style="enable-background:new 0 0 1440 1024;" xml:space="preserve">
<style type="text/css">
	.st0{clip-path:url(#SVGID_2_);fill:#FFFFFF;}
	.st1{clip-path:url(#SVGID_2_);fill:#262626;}
	.st2{clip-path:url(#SVGID_2_);fill:#40B67F;}
	.st3{clip-path:url(#SVGID_2_);fill:url(#SVGID_3_);}
	.st4{clip-path:url(#SVGID_2_);fill:url(#SVGID_4_);}
	.st5{clip-path:url(#SVGID_2_);fill:#EA5266;}
</style>
<g>
	<defs>
		<rect id="SVGID_1_" x="40.14" y="71.61" width="1300" height="830"/>
	</defs>
	<clipPath id="SVGID_2_">
		<use xlink:href="#SVGID_1_"  style="overflow:visible;"/>
	</clipPath>
	<path class="st0" d="M446.65,303.69c-7.7,13.99-16.12,27.68-22.75,42.17c-26.62,58.13-36.15,119.04-28.27,182.62
		c5.37,43.33,18.52,84.13,39.83,122.17c34.39,61.38,83.02,108.26,145.37,140.87c52.2,27.3,107.93,40.23,175.72,40.87
		c9.45-0.9,27.82-2.64,46.19-4.42c1.82-0.18,5.39-1,5.39-1l213.92-121.85c20.76-24.81,37.88-51.92,50.9-81.53
		c21.26-48.33,30.89-98.84,28.48-151.7c-1.04-22.88-4.03-45.43-9.66-67.57c-14.32-56.32-41.05-106.15-80.8-148.49
		C939.71,179.9,851.11,143.07,743.9,140.85c-11.74,0.88-27.09,1.39-42.26,3.29c-38.43,4.82-75.22,15.55-110.21,32.28
		c-3.6,1.72-7.19,3.5-10.67,5.45L446.65,303.69z"/>
	<path class="st1" d="M489.73,351.39c-0.67-0.34-1.35-0.69-2.02-1.03c0.21-0.21,0.42-0.43,0.64-0.64c0.67,0.33,1.33,0.66,2,0.99
		c0,0,0,0,0,0c0.67,0.33,1.33,0.67,2,1c0,0,0,0,0,0c1,0.66,1.99,1.32,2.99,1.98c-0.12,0.14-0.25,0.28-0.37,0.42
		c0.12-0.14,0.25-0.28,0.37-0.42c0.67,0.34,1.34,0.68,2.01,1.02c-0.2,0.23-0.41,0.46-0.61,0.68c-0.67-0.34-1.34-0.68-2.01-1.02
		c0,0,0,0,0,0c-1-0.66-1.99-1.32-2.99-1.98C491.07,352.05,490.4,351.72,489.73,351.39z M478.44,441.48
		c-0.52-0.22-1.25-0.78-1.51-0.61c-0.77,0.5-1.35,1.3-2.01,1.97c0.28,0.27,0.57,0.54,0.77,0.74
		C476.73,442.78,477.59,442.13,478.44,441.48z M475.62,451.14c0.34,0.26,1.21-0.18,1.84-0.3c-0.65-0.62-1.45-1.15-1.91-1.89
		c-0.46-0.74-0.58-1.68-0.86-2.53c-0.19,0.03-0.38,0.06-0.58,0.09c-0.11,0.78-0.5,1.65-0.26,2.3
		C474.18,449.7,474.87,450.56,475.62,451.14z M498.72,356.36c0.35,0.13,0.7,0.27,1.05,0.41c-0.14-0.35-0.28-0.7-0.41-1.05
		c-0.67-0.34-1.34-0.68-2.01-1.02c-0.2,0.23-0.41,0.46-0.61,0.68C497.39,355.71,498.06,356.04,498.72,356.36
		C498.72,356.36,498.72,356.36,498.72,356.36z M479.36,355.36c0.34-0.67,0.67-1.34,1.01-2.01c-0.23-0.2-0.45-0.41-0.68-0.61
		c-0.32,0.66-0.65,1.32-0.97,1.97c0,0,0,0,0,0c-0.33,0.33-0.67,0.67-1,1c0.22,0.21,0.43,0.43,0.65,0.64
		C478.69,356.03,479.02,355.69,479.36,355.36z M481.37,351.35C481.37,351.35,481.37,351.35,481.37,351.35
		c0.33-0.66,0.66-1.33,0.99-1.99c0,0,0,0,0,0c0.33-0.33,0.67-0.67,1-1c-0.22-0.21-0.43-0.43-0.65-0.64c-0.33,0.33-0.67,0.67-1,1
		c-0.34,0.67-0.68,1.35-1.03,2.02c-0.33,0.67-0.67,1.33-1,2c0.23,0.2,0.46,0.41,0.68,0.61C480.7,352.68,481.03,352.02,481.37,351.35
		z M488.35,349.71c-0.35-0.13-0.7-0.27-1.05-0.41c0.14,0.35,0.28,0.7,0.41,1.05C487.92,350.14,488.14,349.93,488.35,349.71z
		 M484.72,348.36c0.35,0.13,0.7,0.27,1.05,0.41c-0.14-0.35-0.28-0.7-0.41-1.05c-0.88,0-1.76,0-2.64-0.01
		c0.21,0.21,0.43,0.43,0.65,0.64C483.81,348.36,484.27,348.36,484.72,348.36C484.72,348.36,484.72,348.36,484.72,348.36z
		 M452.21,533.34c0.26,0,0.51,0,0.77-0.01c0-1.88,0-3.76,0-5.64c-0.26-0.03-0.51-0.06-0.77-0.09
		C452.21,529.51,452.21,531.43,452.21,533.34z M470.28,521.15c-1.89,0-3.77,0-5.66,0c0,0.26,0.01,0.51,0.01,0.77
		c1.96,0,3.91,0,5.87,0C470.43,521.67,470.35,521.41,470.28,521.15z M456.51,523.14c1.63-0.15,3.26-0.3,4.89-0.47
		c0.03,0,0.04-0.21,0.05-0.32c-1.65,0.04-3.31,0.09-4.96,0.13C456.5,522.7,456.51,522.92,456.51,523.14z M456.51,536.14
		c1.63-0.15,3.26-0.3,4.89-0.47c0.03,0,0.04-0.21,0.05-0.32c-1.65,0.04-3.31,0.09-4.96,0.13
		C456.5,535.7,456.51,535.92,456.51,536.14z M466.01,534.01c-0.13,0-0.25,0.41-0.37,0.64c1.53,0.06,3.06,0.13,4.59,0.19
		c0.12-0.29,0.25-0.57,0.37-0.86C469.07,533.98,467.54,533.97,466.01,534.01z M472.49,520.87c1.88,0,3.76,0,5.64,0
		c0.13-0.25,0.26-0.5,0.39-0.75c-2,0-4.01,0-6.01,0C472.5,520.38,472.49,520.62,472.49,520.87z M473.51,533.08c0,0.25,0,0.5,0,0.74
		c1.65,0,3.3,0,4.95,0c0-0.25,0-0.5,0-0.74C476.81,533.08,475.16,533.08,473.51,533.08z M505.72,360.36
		c0.21-0.21,0.42-0.43,0.64-0.64c-0.67-0.34-1.34-0.68-2.01-1.02c0,0,0,0,0,0c-0.67-0.33-1.33-0.66-2-0.99
		c-0.21,0.21-0.42,0.43-0.64,0.64c0.67,0.34,1.35,0.69,2.02,1.03C504.39,359.71,505.05,360.04,505.72,360.36z M453.41,535.34
		c-0.12,0.28-0.34,0.56-0.32,0.83c0.01,0.18,0.36,0.34,0.57,0.51c0.13-0.3,0.35-0.59,0.32-0.85
		C453.97,535.65,453.61,535.5,453.41,535.34z M477.72,359.37c0.67,0.33,1.33,0.66,2,0.99c0.21-0.21,0.42-0.43,0.64-0.64
		c-0.67-0.34-1.35-0.69-2.02-1.03C478.13,358.91,477.93,359.14,477.72,359.37z M452.75,522.91c-0.67,0.43-1.29,0.96-1.82,1.56
		c-0.09,0.11,0.37,0.7,0.57,1.06c0.7-0.58,1.41-1.17,2.35-1.95C453.37,523.27,452.89,522.82,452.75,522.91z M517.7,612.66
		c0.22,0.21,0.43,0.43,0.65,0.64c0.33-0.33,0.67-0.67,1-1c-0.22-0.21-0.43-0.43-0.65-0.64C518.37,611.99,518.04,612.32,517.7,612.66
		z M511.76,616.24c-0.35,0.14-0.7,0.28-1.05,0.41c0.21,0.21,0.43,0.42,0.64,0.63C511.49,616.94,511.62,616.59,511.76,616.24z
		 M524.7,608.66c-0.66,0.33-1.33,0.66-1.99,0.99l0,0c-0.67,0.33-1.33,0.67-2,1c0.09,0.1,0.18,0.2,0.27,0.3
		c-0.09-0.1-0.18-0.2-0.27-0.3c-0.67,0.34-1.34,0.67-2.01,1.01c0.21,0.22,0.43,0.43,0.65,0.64c0.66-0.32,1.31-0.64,1.97-0.97l0,0
		c0.67-0.33,1.33-0.67,2-1l0,0c0.68-0.34,1.35-0.69,2.03-1.03C525.13,609.09,524.92,608.87,524.7,608.66z M513.3,615.71
		c0.35-0.14,0.7-0.28,1.05-0.41c-0.21-0.21-0.43-0.42-0.64-0.63C513.57,615.01,513.43,615.36,513.3,615.71z M983.23,603.25
		c0.14,0.35,0.28,0.7,0.41,1.05c0.21-0.21,0.42-0.43,0.63-0.64C983.93,603.52,983.58,603.38,983.23,603.25z M514.35,615.3
		c0.66-0.32,1.32-0.64,1.98-0.96c-0.2-0.23-0.4-0.46-0.61-0.69c-0.67,0.34-1.34,0.68-2.01,1.02
		C513.92,614.87,514.13,615.09,514.35,615.3z M518.35,613.3c-0.22-0.21-0.43-0.43-0.65-0.64c-0.66,0.33-1.33,0.66-1.99,0.99
		c0.2,0.23,0.41,0.46,0.61,0.69C517,613.99,517.67,613.64,518.35,613.3z M983.64,604.3c0.67,0.33,1.33,0.67,2,1
		c0.22-0.22,0.43-0.43,0.64-0.65c-0.67-0.33-1.34-0.67-2.01-1C984.07,603.87,983.85,604.08,983.64,604.3z M992.64,610.3
		c0.21-0.22,0.43-0.43,0.64-0.65c-0.33-0.33-0.67-0.67-1-1c-0.21,0.22-0.43,0.43-0.64,0.65
		C991.97,609.63,992.31,609.97,992.64,610.3z M995.27,610.64c-0.66-0.33-1.33-0.66-1.99-0.99c-0.21,0.22-0.43,0.43-0.64,0.65
		c0.67,0.34,1.35,0.68,2.02,1.03l0,0c1.61,1.52,2.35,0.85,2.62-1.03c-0.21-0.21-0.43-0.43-0.65-0.64
		C996.18,609.99,995.73,610.32,995.27,610.64C995.27,610.64,995.27,610.64,995.27,610.64z M477.71,355.72
		c0,1.22,0.01,2.44,0.01,3.65c0.2-0.23,0.41-0.45,0.61-0.68c0.01-0.78,0.02-1.55,0.02-2.33
		C478.14,356.14,477.93,355.93,477.71,355.72z M986.64,606.3c0.67,0.33,1.33,0.67,2,1c0.22-0.21,0.43-0.43,0.64-0.65
		c-0.67-0.33-1.33-0.67-2-1C987.07,605.87,986.86,606.09,986.64,606.3z M986.28,604.66c-0.21,0.22-0.43,0.43-0.64,0.65
		c0.33,0.33,0.67,0.67,1,1c0.21-0.22,0.43-0.43,0.64-0.65C986.95,605.32,986.62,604.99,986.28,604.66z M990.28,607.66
		C990.28,607.66,990.28,607.66,990.28,607.66c-0.33-0.34-0.66-0.68-0.99-1.01c-0.21,0.22-0.43,0.43-0.64,0.65
		c0.33,0.33,0.67,0.67,1,1l0,0c0.67,0.33,1.33,0.67,2,1c0.22-0.21,0.43-0.43,0.64-0.65C991.62,608.32,990.95,607.99,990.28,607.66
		C990.28,607.66,990.28,607.66,990.28,607.66z M481.61,532.08c0.04,0.25,0.08,0.5,0.11,0.76c1.61,0,3.23,0,4.84,0
		c0-0.25-0.01-0.5-0.01-0.76C484.91,532.08,483.26,532.08,481.61,532.08z M489.42,452.3c-1.3-0.14-2.61-0.28-3.91-0.42
		c-0.02,0.37-0.04,0.74-0.06,1.12c1.23,0,2.46,0.02,3.69-0.03C489.24,452.96,489.32,452.53,489.42,452.3z M486.49,519.08
		c-1.95,0-3.9,0-5.85,0c0.05,0.26,0.1,0.51,0.15,0.77c1.9,0,3.81,0,5.71,0C486.49,519.59,486.49,519.33,486.49,519.08z
		 M494.28,518.15c-1.89,0-3.77,0-5.66,0c0,0.26,0.01,0.51,0.01,0.77c1.96,0,3.91,0,5.87,0
		C494.43,518.67,494.35,518.41,494.28,518.15z M484.25,451.23c-1.32-0.18-2.06-0.36-2.79-0.33c-0.35,0.02-0.68,0.45-1.03,0.69
		c0.72,0.19,1.44,0.47,2.17,0.54C482.95,452.16,483.33,451.76,484.25,451.23z M480.77,360.77c-0.14-0.35-0.28-0.7-0.41-1.05
		c-0.21,0.21-0.42,0.43-0.63,0.64C480.07,360.49,480.42,360.63,480.77,360.77z M502.39,617.68L502.39,617.68
		c-0.34-0.68-0.69-1.35-1.03-2.03c-0.21,0.22-0.43,0.43-0.64,0.65c0.33,0.66,0.66,1.33,0.99,1.99c0.33,0.67,0.67,1.33,1,2
		c0.23-0.2,0.46-0.41,0.68-0.61C503.05,619.01,502.72,618.35,502.39,617.68z M500.34,614.66c-0.21,0.21-0.42,0.42-0.63,0.63
		c0.33,0.34,0.66,0.67,0.99,1.01c0.21-0.22,0.43-0.43,0.64-0.65C501.02,615.32,500.68,614.99,500.34,614.66z M490,531.01
		c-0.13,0-0.25,0.41-0.37,0.64c1.53,0.06,3.06,0.13,4.59,0.19c0.12-0.29,0.25-0.57,0.37-0.86
		C493.06,530.98,491.53,530.97,490,531.01z M506.71,618.65c-0.33,0.33-0.67,0.67-1,1c-0.77,0.01-1.55,0.02-2.32,0.03
		c-0.23,0.2-0.46,0.4-0.68,0.61c1.22,0,2.43,0.01,3.65,0.01c0,0,0,0,0,0c0.33-0.33,0.67-0.67,1-1
		C507.14,619.08,506.92,618.87,506.71,618.65z M508.71,617.65c-0.67,0.34-1.34,0.67-2.01,1.01c0.22,0.21,0.43,0.43,0.65,0.64
		c0.66-0.32,1.31-0.64,1.97-0.97l0,0c0.68-0.35,1.35-0.69,2.03-1.04c-0.21-0.21-0.43-0.42-0.64-0.64
		C510.05,616.99,509.38,617.32,508.71,617.65L508.71,617.65z M491.66,453.28c0.08,0.23,0.14,0.66,0.23,0.66
		c1.23,0.04,2.47,0.03,3.7,0.03c-0.02-0.36-0.03-0.72-0.05-1.08C494.24,453.02,492.95,453.15,491.66,453.28z M503.72,609.65
		c-2.29,1.2-6.61,0.97-4,5.64c0.21-0.21,0.42-0.42,0.63-0.63c1.33-1.44,2.65-2.89,3.98-4.33
		C504.12,610.1,503.92,609.87,503.72,609.65z M700.66,222.57c0.19-0.9,0.56-1.81,0.53-2.71c-0.03-0.71-0.55-1.41-0.85-2.11
		c0.51-0.5,1.22-0.92,1.49-1.53c1.18-2.64-1.17-0.82-1.72-1.31c-0.15,1.15-0.31,2.29-0.46,3.44c0.03,0.48-0.03,0.98,0.09,1.43
		C699.99,220.73,700.35,221.65,700.66,222.57z M710.64,227.36L710.64,227.36c0.34,1.09,0.68,2.17,1.03,3.26
		c0.01-1.18,0.02-2.36,0.01-3.54c0-0.11-0.22-0.22-0.34-0.32c-0.12,0.1-0.23,0.2-0.35,0.3c0.12-0.1,0.23-0.2,0.35-0.3
		c-0.32-1.66-0.65-3.32-0.97-4.98c-0.23,0.2-0.46,0.4-0.69,0.6C709.99,224.04,710.32,225.7,710.64,227.36z M713.44,233.92
		c-0.38-0.54-0.7-1-1.01-1.45c-0.21,0.57-0.58,1.14-0.57,1.69c0.02,0.51,0.46,1,0.72,1.5C712.84,235.13,713.11,234.59,713.44,233.92
		z M763.95,202.76c-0.25,0.03-0.5,0.06-0.75,0.09c0,6.82,0,13.65,0,20.47c0.25,0,0.5-0.01,0.75-0.01
		C763.95,216.46,763.95,209.61,763.95,202.76z M999.65,384.7c-0.99,0.33-1.99,0.65-2.98,0.98c0.2,0.23,0.4,0.46,0.61,0.69
		c0.99-0.33,1.99-0.65,2.98-0.98l0,0c0.42-0.39,0.85-0.78,1.27-1.17C1000.9,384.37,1000.27,384.54,999.65,384.7z M997.27,386.36
		c-0.2-0.23-0.41-0.46-0.61-0.69c-0.42,0.39-0.85,0.78-1.27,1.17C996.02,386.68,996.65,386.52,997.27,386.36z M765.39,195.55
		c0.22-0.84,1.22-1.94,2.01-2.08c6.85-1.21,10.34,2.33,9.22,9.15c-0.03,0.16-0.06,0.33-0.07,0.49c-0.39,8.04-0.79,16.07-1.18,24.11
		c0.5,0.08,1,0.15,1.5,0.23c0.45-10.69,0.93-21.37,1.3-32.06c0.03-0.82-0.66-2.35-1.14-2.4c-4.05-0.46-8.15-0.95-12.16-0.59
		c-0.55,0.05-0.71,4.68-0.99,7.19c-0.03,0.27,0.38,0.59,1.06,1.59C765.1,198.75,764.99,197.08,765.39,195.55z M708.64,217.36
		L708.64,217.36c0.34,1.67,0.68,3.35,1.02,5.02c0.23-0.2,0.46-0.4,0.69-0.6c-0.34-1.67-0.68-3.35-1.03-5.02
		c-0.01-0.16-0.05-0.32-0.04-0.49c0.1-2.37-1.44-2.61-3.22-2.41c-0.52,0.06-1.01,0.45-1.51,0.69c0.97,0.43,1.99,0.77,2.88,1.33
		C707.96,216.2,708.25,216.86,708.64,217.36z M632.99,260.24c-0.11-0.28-0.23-0.55-0.35-0.83c-0.21,0.16-0.56,0.3-0.58,0.48
		c-0.02,0.27,0.19,0.55,0.31,0.83C632.58,260.55,632.79,260.4,632.99,260.24z M996.64,609.66c0.22,0.21,0.43,0.43,0.65,0.64
		c0.33-0.33,0.67-0.67,1-1c-0.22-0.21-0.43-0.43-0.65-0.64C997.3,608.99,996.97,609.32,996.64,609.66z M506.76,360.77
		c-0.14-0.35-0.28-0.7-0.41-1.05c-0.21,0.21-0.42,0.43-0.63,0.64C506.07,360.49,506.42,360.63,506.76,360.77z M703.67,236.62
		c0.01-1.18,0.02-2.36,0.01-3.54c0-0.11-0.22-0.22-0.34-0.32c-0.23,0.2-0.46,0.4-0.69,0.61
		C702.99,234.44,703.33,235.53,703.67,236.62z M993.25,374.39c1-0.34,1.99-0.68,2.99-1.02c-0.19-0.22-0.39-0.44-0.59-0.66
		c-1,0.33-2.01,0.66-3.01,0.99l0,0c-0.99,0.33-1.99,0.65-2.98,0.98c0.2,0.23,0.4,0.46,0.61,0.69
		C991.27,375.04,992.26,374.71,993.25,374.39L993.25,374.39z M1023.81,443.61c-0.24,0-0.47,0.01-0.71,0.01c0,3.27,0,6.54,0,9.8
		c0.24,0,0.47,0,0.71-0.01C1023.81,450.14,1023.81,446.88,1023.81,443.61z M988.4,375.85c0.63-0.16,1.25-0.32,1.88-0.49
		c-0.2-0.23-0.41-0.46-0.61-0.69C989.24,375.07,988.82,375.46,988.4,375.85z M1031.6,366.33L1031.6,366.33
		c0.39,0.42,0.78,0.85,1.17,1.27c-0.16-0.63-0.32-1.25-0.49-1.88c-0.33-0.99-0.65-1.99-0.98-2.98c-0.23,0.2-0.46,0.41-0.68,0.61
		C1030.95,364.34,1031.28,365.34,1031.6,366.33z M1030.63,363.35c0.23-0.2,0.46-0.41,0.68-0.61c-0.35-0.68-0.7-1.36-1.05-2.04
		c0,0,0,0,0,0c-0.62-0.16-1.25-0.32-1.87-0.48c0.42,0.39,0.84,0.78,1.27,1.17C1029.98,362.04,1030.3,362.7,1030.63,363.35z
		 M1027.78,374.98c0.27,0.02,0.55-0.19,0.85-0.32c-0.17-0.21-0.32-0.56-0.5-0.57c-0.27-0.02-0.55,0.19-0.83,0.31
		C1027.46,374.6,1027.61,374.96,1027.78,374.98z M998.27,372.36c0.99-0.33,1.99-0.65,2.98-0.98l0,0c0.42-0.39,0.85-0.78,1.27-1.17
		c-0.63,0.16-1.25,0.32-1.88,0.49c-0.99,0.32-1.99,0.65-2.98,0.97l0,0c-0.67,0.35-1.34,0.69-2.01,1.04c0.2,0.22,0.39,0.44,0.59,0.66
		C996.92,373.04,997.6,372.7,998.27,372.36z M1012.73,380.55c-0.25-0.17-0.5-0.46-0.76-0.47c-0.26-0.01-0.52,0.28-0.79,0.43
		c0.25,0.17,0.5,0.46,0.76,0.47C1012.21,380.99,1012.47,380.7,1012.73,380.55z M627.68,218.38c0.33,0.48,0.65,0.95,0.98,1.43
		c-0.1-0.68-0.2-1.36-0.29-2.04l0,0c-0.34-0.67-0.68-1.35-1.02-2.02c-0.23,0.2-0.46,0.41-0.69,0.61
		C627,217.04,627.34,217.71,627.68,218.38z M1006.27,369.36c0.99-0.33,1.99-0.65,2.98-0.98l0,0c0.42-0.39,0.85-0.78,1.27-1.17
		c-0.63,0.16-1.25,0.32-1.88,0.49c-0.99,0.33-1.99,0.65-2.98,0.98l0,0c-0.42,0.39-0.85,0.78-1.27,1.17
		C1005.02,369.69,1005.65,369.53,1006.27,369.36z M701.33,228.06c0,0.11,0.22,0.22,0.34,0.32c0.33,1.66,0.65,3.32,0.98,4.98
		c0.23-0.2,0.46-0.4,0.69-0.61c-0.33-1.66-0.65-3.32-0.98-4.98c-0.34-1.09-0.68-2.17-1.03-3.26
		C701.33,225.7,701.31,226.88,701.33,228.06z M506.35,374.71c-0.21,0.22-0.43,0.43-0.64,0.65c0.33,0.33,0.67,0.67,1,1
		c0.21-0.22,0.43-0.43,0.64-0.65C507.02,375.38,506.69,375.04,506.35,374.71z M485.33,362.68c-0.66-0.32-1.32-0.65-1.98-0.97
		c0,0,0,0,0,0c-0.35-0.13-0.7-0.27-1.05-0.41c0.14,0.35,0.28,0.7,0.41,1.05c0.67,0.34,1.34,0.68,2.01,1.02
		c0.07-0.07,0.13-0.15,0.2-0.22c-0.07,0.07-0.13,0.15-0.2,0.22c0.66,0.33,1.33,0.66,1.99,0.99c0.22-0.21,0.43-0.43,0.64-0.65
		C486.68,363.37,486.01,363.03,485.33,362.68L485.33,362.68z M498.73,371.38c1,0.66,1.99,1.32,2.99,1.98
		c0.2-0.23,0.41-0.45,0.61-0.68c-1-0.66-1.99-1.32-2.99-1.98C499.14,370.93,498.94,371.15,498.73,371.38z M497.33,369.68
		c-0.66-0.32-1.32-0.65-1.98-0.97c-0.21,0.21-0.42,0.43-0.64,0.64c0.67,0.34,1.34,0.68,2.01,1.02c0,0,0,0,0,0
		c0.67,0.34,1.34,0.68,2.01,1.02c0.2-0.23,0.41-0.46,0.61-0.68C498.67,370.36,498,370.02,497.33,369.68z M487.35,363.71
		c-0.21,0.22-0.43,0.43-0.64,0.65c0.33,0.33,0.67,0.67,1,1c0.21-0.22,0.43-0.43,0.64-0.65
		C488.02,364.38,487.69,364.04,487.35,363.71z M502.34,357.71c-0.35-0.13-0.7-0.27-1.05-0.41c0.14,0.35,0.28,0.7,0.41,1.05
		C501.92,358.14,502.13,357.93,502.34,357.71z M494.3,368.3c0.14,0.35,0.28,0.7,0.41,1.05c0.21-0.21,0.42-0.43,0.63-0.64
		C495,368.57,494.65,368.44,494.3,368.3z M491.72,367.36c0.35,0.13,0.7,0.27,1.05,0.41c-0.14-0.35-0.28-0.7-0.41-1.05
		c-0.67-0.34-1.35-0.69-2.02-1.03c-0.66-0.32-1.32-0.65-1.97-0.97c-0.21,0.22-0.43,0.43-0.64,0.65c0.67,0.34,1.34,0.67,2.01,1.01
		c0,0,0,0,0,0C490.39,366.7,491.05,367.03,491.72,367.36C491.72,367.36,491.72,367.36,491.72,367.36z M496.62,444.99
		c-0.01-0.37-0.02-0.74-0.03-1.11c-1.32,0.14-2.63,0.28-3.95,0.42c0.09,0.23,0.18,0.66,0.27,0.67
		C494.15,445.01,495.39,444.99,496.62,444.99z M486.43,444.04c1.23,0,2.45,0.02,3.68-0.03c0.13-0.01,0.25-0.42,0.37-0.65
		c-1.2-0.22-2.4-0.44-3.6-0.66C486.72,443.15,486.58,443.59,486.43,444.04z M480.45,443c1.23,0,2.46,0.02,3.69-0.03
		c0.1,0,0.19-0.43,0.28-0.67c-1.3-0.14-2.61-0.28-3.91-0.42C480.49,442.25,480.47,442.62,480.45,443z M509.33,376.68
		c-0.66-0.32-1.32-0.65-1.97-0.97c-0.21,0.21-0.43,0.43-0.64,0.65c0.67,0.34,1.34,0.67,2.01,1.01
		C508.92,377.14,509.13,376.91,509.33,376.68z M513.71,365.36c0.21-0.22,0.43-0.43,0.64-0.65c-0.33-0.33-0.67-0.67-1-1
		c-0.21,0.22-0.43,0.43-0.64,0.65C513.04,364.69,513.37,365.02,513.71,365.36z M510.72,363.37c0.2-0.23,0.41-0.45,0.61-0.68
		c-0.66-0.32-1.32-0.65-1.98-0.97c0,0,0,0,0,0c-0.35-0.13-0.7-0.27-1.05-0.41c0.14,0.35,0.28,0.7,0.41,1.05
		C509.38,362.69,510.05,363.03,510.72,363.37z M512.71,364.36c0.22-0.21,0.43-0.43,0.64-0.65c-0.67-0.34-1.35-0.68-2.02-1.03
		c-0.2,0.23-0.41,0.46-0.61,0.68C511.38,363.7,512.04,364.03,512.71,364.36z M515.72,366.37c0.67,0.33,1.33,0.66,2,0.99c0,0,0,0,0,0
		c0.35,0.13,0.7,0.27,1.05,0.41c-0.14-0.35-0.28-0.7-0.41-1.05c-0.67-0.34-1.35-0.69-2.02-1.03c-0.66-0.32-1.32-0.65-1.97-0.97
		c-0.21,0.22-0.43,0.43-0.64,0.65C514.38,365.69,515.05,366.03,515.72,366.37C515.72,366.37,515.72,366.37,515.72,366.37z
		 M622.31,213.42c0.42-0.39,0.85-0.78,1.27-1.17c-0.63,0.16-1.25,0.32-1.88,0.49c-0.48,0.33-0.96,0.65-1.43,0.98
		C620.95,213.62,621.63,213.52,622.31,213.42L622.31,213.42z M501.72,373.36c0.67,0.33,1.33,0.67,2,1c0.2-0.23,0.41-0.45,0.61-0.68
		c-0.67-0.33-1.33-0.67-2-1C502.13,372.91,501.92,373.14,501.72,373.36z M513.7,379.2c-0.76-0.54-1.57-1.01-2.36-1.5
		c-0.2,0.23-0.41,0.46-0.61,0.68c0.91,0.53,1.82,1.06,2.73,1.59C513.55,379.7,513.77,379.25,513.7,379.2z M503.72,374.36
		c0.66,0.33,1.33,0.66,1.99,0.99c0.22-0.21,0.43-0.43,0.64-0.65c-0.67-0.34-1.35-0.68-2.02-1.03
		C504.13,373.91,503.92,374.14,503.72,374.36z M626.66,216.36c0.23-0.2,0.46-0.4,0.69-0.61c-0.47-1.11-0.93-2.22-1.45-3.3
		c-0.02-0.05-0.5,0.11-0.76,0.17c0.38,1.15,0.75,2.3,1.15,3.44C626.34,216.19,626.53,216.26,626.66,216.36z M510.73,378.38
		c0.2-0.23,0.41-0.46,0.61-0.68c-0.67-0.34-1.34-0.68-2.01-1.02c-0.2,0.23-0.41,0.46-0.61,0.68
		C509.39,377.7,510.06,378.04,510.73,378.38z M560.34,304.72c-0.33-0.33-0.67-0.67-1-1c-0.33-0.33-0.67-0.67-1-1
		c-0.21,0.22-0.43,0.43-0.64,0.64c0.33,0.33,0.67,0.67,1,1c0,0,0,0,0,0c0.33,0.33,0.67,0.67,1,1c0,0,0,0,0,0
		c0.33,0.33,0.67,0.67,1,1c0.22-0.21,0.43-0.43,0.64-0.64C561.01,305.39,560.68,305.06,560.34,304.72L560.34,304.72z M531.35,689.64
		c-0.22,0.21-0.43,0.43-0.65,0.64c0.33,0.33,0.67,0.67,1,1c0.22-0.21,0.43-0.43,0.65-0.64
		C532.02,690.31,531.69,689.97,531.35,689.64z M832.34,242.36c1-4,1.99-7.99,2.99-11.99c0,0,0,0,0,0c0.34-1.34,0.68-2.67,1.01-4.01
		c-0.23-0.2-0.46-0.4-0.69-0.6c-0.34,1.34-0.68,2.67-1.01,4.01c-1,4-1.99,7.99-2.99,11.99c0,0,0,0,0,0
		c-0.34,1.34-0.68,2.67-1.01,4.01c0.23,0.2,0.46,0.4,0.69,0.6C831.66,245.03,832,243.7,832.34,242.36z M840.01,245.34
		c-0.01,0.03,0.45,0.16,0.69,0.25c0.21-0.75,0.41-1.49,0.62-2.24c0.34-1.33,0.67-2.66,1.01-3.99c0.33-1.33,0.66-2.66,0.99-3.99
		c0.3-0.7,0.75-1.38,0.84-2.11c0.07-0.55-0.32-1.16-0.51-1.75c-0.31,0.61-0.69,1.19-0.91,1.82c-0.15,0.44-0.08,0.95-0.11,1.43
		c-0.33,1.33-0.66,2.66-0.99,3.99c0,0,0,0,0,0c-0.33,1.34-0.66,2.67-0.99,4C840.43,243.62,840.2,244.48,840.01,245.34z
		 M843.64,227.35c0.21,0.75,0.41,1.5,0.62,2.24c0.24-0.08,0.7-0.21,0.69-0.24c-0.19-0.87-0.42-1.72-0.64-2.58
		c-1.35-0.35-2.69-0.69-4.04-1.04c-0.19,0.22-0.39,0.45-0.58,0.67C841,226.71,842.32,227.03,843.64,227.35z M840.27,225.73
		c-1.54,0.01-3.08,0.02-4.62,0.03c0.23,0.2,0.46,0.4,0.69,0.6c1.12,0.01,2.23,0.02,3.35,0.03
		C839.88,226.17,840.07,225.95,840.27,225.73z M1004.66,382.68c0.09,0.11,0.19,0.21,0.28,0.32
		C1004.85,382.89,1004.76,382.78,1004.66,382.68c-0.42,0.39-0.85,0.78-1.27,1.17c0.63-0.16,1.25-0.32,1.88-0.49l0,0
		c0.99-0.33,1.99-0.65,2.98-0.98c-0.2-0.23-0.4-0.46-0.61-0.69C1006.65,382.02,1005.66,382.35,1004.66,382.68z M1018.52,364.22
		c-0.63,0.16-1.25,0.32-1.88,0.49c0.2,0.23,0.41,0.46,0.61,0.69C1017.68,365,1018.1,364.61,1018.52,364.22z M1009.81,517.07
		c-0.08,0-0.15,0.43-0.23,0.66c1.31-0.1,2.61-0.21,3.92-0.31c0.01-0.13,0.01-0.26,0.02-0.38
		C1012.28,517.04,1011.05,517.03,1009.81,517.07z M1009.52,381.21c-0.63,0.16-1.25,0.32-1.88,0.49c0.2,0.23,0.41,0.46,0.61,0.69
		C1008.68,381.99,1009.1,381.6,1009.52,381.21z M573.34,305.72c-0.21,0.22-0.43,0.43-0.64,0.65c0.33,0.33,0.67,0.67,1,1
		c0.21-0.22,0.43-0.43,0.64-0.65C574.01,306.39,573.68,306.06,573.34,305.72z M1008.85,530.05c-0.1,0-0.19,0.43-0.28,0.67
		c1.3,0.14,2.61,0.28,3.91,0.42c0.02-0.37,0.04-0.74,0.06-1.12C1011.32,530.02,1010.08,530,1008.85,530.05z M1016.64,364.7
		c-0.99,0.33-1.99,0.65-2.98,0.98l0,0c-0.42,0.39-0.85,0.78-1.27,1.17c0.63-0.16,1.25-0.32,1.88-0.49c0.99-0.33,1.99-0.65,2.98-0.98
		C1017.05,365.16,1016.85,364.93,1016.64,364.7z M556.7,302.37c0.22-0.21,0.43-0.43,0.64-0.64c-0.35-0.14-0.7-0.27-1.05-0.41
		C556.43,301.67,556.56,302.02,556.7,302.37z M564.34,308.72c-0.21,0.22-0.43,0.43-0.64,0.65c0.33,0.33,0.67,0.67,1,1
		c0.21-0.22,0.43-0.43,0.64-0.65C565.01,309.39,564.68,309.06,564.34,308.72z M556.7,302.37c0.33,0.33,0.67,0.67,1,1
		c0.22-0.21,0.43-0.43,0.64-0.64c-0.33-0.33-0.67-0.67-1-1C557.13,301.94,556.91,302.15,556.7,302.37z M561.7,307.37
		c0.33,0.33,0.67,0.67,1,1c0.22-0.21,0.43-0.43,0.64-0.64c-0.33-0.33-0.67-0.67-1-1C562.13,306.94,561.91,307.15,561.7,307.37z
		 M562.7,308.37c0.33,0.33,0.67,0.67,1,1c0.22-0.21,0.43-0.43,0.64-0.65c-0.33-0.33-0.67-0.67-1-1
		C563.13,307.94,562.91,308.15,562.7,308.37z M568.29,301.45c0.66,0.89,1.32,1.78,1.99,2.66c0.09,0.12,0.27,0.18,0.41,0.26
		c0.22-0.21,0.43-0.43,0.64-0.64c-0.76-0.91-1.51-1.83-2.3-2.7C569,300.98,568.55,301.3,568.29,301.45z M571.7,305.37
		c0.33,0.33,0.67,0.67,1,1c0.22-0.21,0.43-0.43,0.64-0.65c-0.33-0.33-0.67-0.67-1-1C572.13,304.94,571.91,305.15,571.7,305.37z
		 M564.7,310.37c0.67,0.67,1.33,1.33,2,2c0.21-0.21,0.43-0.43,0.64-0.65c-0.67-0.67-1.33-1.33-2-2
		C565.13,309.94,564.92,310.16,564.7,310.37z M570.7,304.37c0.33,0.33,0.67,0.67,1,1c0.22-0.21,0.43-0.43,0.64-0.64
		c-0.33-0.33-0.67-0.67-1-1C571.13,303.94,570.91,304.15,570.7,304.37z M567.34,311.72c-0.21,0.22-0.43,0.43-0.64,0.65
		c0.33,0.33,0.67,0.67,1,1c0.21-0.22,0.43-0.43,0.64-0.65C568.01,312.39,567.68,312.06,567.34,311.72z M560.7,306.37
		c0.33,0.33,0.67,0.67,1,1c0.22-0.21,0.43-0.43,0.64-0.64c-0.33-0.33-0.67-0.67-1-1C561.13,305.94,560.91,306.15,560.7,306.37z
		 M1038.6,535.26c0.08,0.23,0.14,0.66,0.23,0.66c1.23,0.04,2.46,0.03,3.69,0.03c-0.02-0.36-0.03-0.71-0.05-1.07
		C1041.17,535,1039.88,535.13,1038.6,535.26z M1033.6,371.32c0.23-0.2,0.46-0.4,0.68-0.61c-0.32-0.48-0.65-0.96-0.97-1.43
		C1033.4,369.97,1033.5,370.64,1033.6,371.32z M1039.29,522.48c0.55,0.24,1.09,0.63,1.65,0.67c0.56,0.04,1.15-0.27,2.48-0.63
		c-1.32-0.38-1.89-0.7-2.45-0.67C1040.41,521.88,1039.85,522.25,1039.29,522.48z M1032.4,534.05c0.02,0.36,0.03,0.71,0.05,1.07
		c1.28-0.13,2.56-0.25,3.84-0.38c-0.07-0.23-0.14-0.65-0.22-0.66C1034.84,534.03,1033.62,534.05,1032.4,534.05z M1034.28,372.35
		c0-0.54,0-1.09,0-1.63c-0.23,0.2-0.45,0.41-0.68,0.61c0,0,0.01,0.41,0.01,0.41c-0.65,0.32-1.3,0.63-1.95,0.95v0
		c-0.42,0.39-0.85,0.78-1.27,1.17c0.63-0.16,1.25-0.32,1.88-0.49C1032.94,373.02,1033.61,372.69,1034.28,372.35
		C1034.28,372.35,1034.28,372.35,1034.28,372.35z M1015.66,378.68c0.2,0.23,0.4,0.46,0.61,0.69c0.48-0.33,0.96-0.65,1.43-0.98
		C1017.02,378.48,1016.34,378.58,1015.66,378.68z M1053.71,535.27c-0.15,0.44-0.08,0.95-0.11,1.43c0.23,0.2,0.46,0.4,0.69,0.6
		c0.3-0.7,0.75-1.38,0.84-2.11c0.07-0.55-0.32-1.16-0.51-1.75C1054.31,534.05,1053.93,534.63,1053.71,535.27z M1044.49,536.58
		c0.56,0.27,1.12,0.54,1.73,0.84c0.81-0.3,1.54-0.57,2.27-0.84c-0.67-0.28-1.34-0.77-2.01-0.77
		C1045.82,535.81,1045.16,536.3,1044.49,536.58z M1051.13,524.57c4.46,0.02,3.02,3.93,4.39,6.29
		C1056.94,524.1,1056.56,523.53,1051.13,524.57z M1045.37,523.02c0.02,0.37,0.04,0.74,0.06,1.11c1.3-0.14,2.61-0.28,3.91-0.41
		c-0.09-0.23-0.18-0.66-0.27-0.67C1047.83,523,1046.6,523.02,1045.37,523.02z M1050.44,537.72c1.18-0.02,2.36-0.03,3.53-0.07
		c0.11,0,0.21-0.22,0.32-0.34c-0.23-0.2-0.46-0.4-0.69-0.6C1052.55,537.04,1051.49,537.38,1050.44,537.72z M1033.43,521.61
		c0.54,0.25,1.08,0.5,1.78,0.83c0.47-0.39,0.88-0.72,1.28-1.05c-0.57-0.19-1.14-0.55-1.69-0.53
		C1034.32,520.87,1033.88,521.34,1033.43,521.61z M1021.37,519.02c0.02,0.37,0.04,0.74,0.06,1.11c1.3-0.14,2.61-0.28,3.91-0.41
		c-0.09-0.23-0.17-0.66-0.27-0.67C1023.84,519.01,1022.6,519.02,1021.37,519.02z M1027.36,520.58c0.72,0.19,1.44,0.47,2.17,0.54
		c0.34,0.03,0.72-0.37,1.64-0.9c-1.32-0.18-2.06-0.36-2.79-0.33C1028.03,519.9,1027.7,520.33,1027.36,520.58z M1015.57,518.28
		c0.09,0.23,0.17,0.66,0.27,0.67c1.23,0.05,2.46,0.03,3.7,0.03c-0.02-0.37-0.04-0.74-0.06-1.11
		C1018.18,518,1016.88,518.14,1015.57,518.28z M1014.39,379.85c0.63-0.16,1.25-0.32,1.88-0.49c-0.2-0.23-0.41-0.46-0.61-0.69
		C1015.24,379.07,1014.82,379.46,1014.39,379.85z M1014.85,531.05c-0.1,0-0.19,0.43-0.28,0.67c1.3,0.14,2.61,0.28,3.91,0.42
		c0.02-0.37,0.04-0.74,0.06-1.12C1017.32,531.02,1016.08,531,1014.85,531.05z M1020.35,533.02c1.23,0,2.45,0.02,3.68-0.03
		c0.13-0.01,0.25-0.42,0.37-0.65c-1.2-0.22-2.4-0.44-3.6-0.66C1020.65,532.13,1020.5,532.57,1020.35,533.02z M1021.66,362.68
		c-0.42,0.39-0.85,0.78-1.27,1.17c0.63-0.16,1.25-0.32,1.88-0.49c0.99-0.33,1.98-0.66,2.97-0.99c-0.19-0.22-0.39-0.44-0.58-0.66
		C1023.66,362.04,1022.66,362.36,1021.66,362.68L1021.66,362.68z M998.28,609.3c0.33-0.67,0.66-1.33,1-2
		c-0.21-0.21-0.43-0.43-0.64-0.64c-0.33,0.66-0.67,1.33-1,1.99C997.85,608.87,998.07,609.08,998.28,609.3z M1026.85,533.05
		c-0.1,0-0.19,0.43-0.28,0.67c1.3,0.14,2.61,0.28,3.91,0.42c0.02-0.37,0.04-0.74,0.06-1.12
		C1029.31,533.02,1028.08,533,1026.85,533.05z M1025.24,362.37c0.43-0.38,0.86-0.77,1.28-1.15c-0.62,0.16-1.25,0.33-1.87,0.49
		C1024.85,361.93,1025.05,362.15,1025.24,362.37z M1024.13,376.25c-0.16-0.18-0.32-0.37-0.49-0.55c-0.99,0.33-1.99,0.65-2.98,0.98
		l0,0c-0.42,0.39-0.85,0.78-1.27,1.17c0.63-0.16,1.25-0.32,1.88-0.49c0.99-0.33,1.99-0.65,2.98-0.98c0,0,0,0,0,0
		c0.42-0.39,0.85-0.78,1.27-1.17c-0.63,0.16-1.25,0.32-1.88,0.49C1023.81,375.88,1023.97,376.06,1024.13,376.25z M954.64,696.28
		C954.64,696.28,954.64,696.28,954.64,696.28c0.33,0.33,0.67,0.67,1,1c0.22-0.21,0.43-0.43,0.64-0.64c-0.33-0.33-0.67-0.67-1-1
		c-0.33-0.33-0.67-0.67-1-1c-0.21,0.22-0.43,0.43-0.64,0.64C953.98,695.61,954.31,695.94,954.64,696.28z M950.64,692.28
		C950.64,692.28,950.64,692.28,950.64,692.28c0.33,0.33,0.67,0.67,1,1c0.22-0.21,0.43-0.43,0.64-0.64c-0.33-0.33-0.67-0.67-1-1
		c-0.33-0.33-0.67-0.67-1-1c-0.21,0.22-0.43,0.43-0.64,0.64C949.98,691.61,950.31,691.95,950.64,692.28z M952.64,694.28
		C952.64,694.28,952.64,694.28,952.64,694.28c0.33,0.33,0.67,0.67,1,1c0.22-0.21,0.43-0.43,0.64-0.64c-0.33-0.33-0.67-0.67-1-1
		c-0.33-0.33-0.67-0.67-1-1c-0.21,0.22-0.43,0.43-0.64,0.64C951.98,693.61,952.31,693.94,952.64,694.28z M956.64,698.28
		c0.22-0.21,0.43-0.43,0.64-0.64c-0.33-0.33-0.67-0.67-1-1c-0.21,0.22-0.43,0.43-0.64,0.64
		C955.98,697.61,956.31,697.94,956.64,698.28z M957.64,699.28c0.21-0.21,0.43-0.43,0.64-0.65c-0.33-0.33-0.67-0.67-1-1
		c-0.21,0.22-0.43,0.43-0.64,0.64C956.98,698.61,957.31,698.94,957.64,699.28z M931.65,673.28
		C931.65,673.28,931.65,673.28,931.65,673.28c0.33,0.33,0.67,0.67,1,1c0,0,0,0,0,0c0.33,0.33,0.67,0.67,1,1c0,0,0,0,0,0
		c0.33,0.33,0.67,0.67,1,1c0,0,0,0,0,0c0.33,0.33,0.67,0.67,1,1c0,0,0,0,0,0c0.33,0.33,0.67,0.67,1,1c0,0,0,0,0,0
		c0.33,0.33,0.67,0.67,1,1c0.22-0.21,0.43-0.43,0.64-0.64c-0.33-0.33-0.67-0.67-1-1c-0.33-0.33-0.67-0.67-1-1
		c-0.33-0.33-0.67-0.67-1-1c-0.33-0.33-0.67-0.67-1-1c-0.33-0.33-0.67-0.67-1-1c-0.33-0.33-0.67-0.67-1-1c-0.33-0.33-0.67-0.67-1-1
		c-0.21,0.22-0.43,0.43-0.64,0.64C930.98,672.62,931.31,672.95,931.65,673.28z M939.64,681.28
		C939.64,681.28,939.64,681.28,939.64,681.28c0.33,0.33,0.67,0.67,1,1c0,0,0,0,0,0c0.33,0.33,0.67,0.67,1,1c0,0,0,0,0,0
		c0.33,0.33,0.67,0.67,1,1c0,0,0,0,0,0c0.33,0.33,0.67,0.67,1,1c0.22-0.21,0.43-0.43,0.64-0.64c-0.33-0.33-0.67-0.67-1-1
		c-0.33-0.33-0.67-0.67-1-1c-0.33-0.33-0.67-0.67-1-1c-0.33-0.33-0.67-0.67-1-1c-0.33-0.33-0.67-0.67-1-1
		c-0.21,0.22-0.43,0.43-0.64,0.64C938.98,680.61,939.31,680.95,939.64,681.28z M938.64,680.28c0.22-0.21,0.43-0.43,0.64-0.64
		c-0.33-0.33-0.67-0.67-1-1c-0.21,0.22-0.43,0.43-0.64,0.64C937.98,679.61,938.31,679.95,938.64,680.28z M949.64,691.28
		c0.22-0.21,0.43-0.43,0.64-0.64c-0.33-0.33-0.67-0.67-1-1c-0.21,0.22-0.43,0.43-0.64,0.64
		C948.98,690.61,949.31,690.95,949.64,691.28z M525.35,370.71c-0.21,0.22-0.43,0.43-0.64,0.65c0.33,0.33,0.67,0.67,1,1
		c0.21-0.22,0.43-0.43,0.64-0.65C526.02,371.38,525.68,371.04,525.35,370.71z M944.64,686.28
		C944.64,686.28,944.64,686.28,944.64,686.28c0.33,0.33,0.67,0.67,1,1c0.22-0.21,0.43-0.43,0.64-0.64c-0.33-0.33-0.67-0.67-1-1
		c-0.33-0.33-0.67-0.67-1-1c-0.21,0.22-0.43,0.43-0.64,0.64C943.98,685.61,944.31,685.95,944.64,686.28z M958.64,700.28
		c0.21-0.22,0.43-0.43,0.64-0.65c-0.33-0.33-0.67-0.67-1-1c-0.21,0.22-0.43,0.43-0.64,0.65
		C957.98,699.61,958.31,699.95,958.64,700.28z M1000.27,602.65c-0.66-0.33-1.33-0.66-1.99-0.99c-0.22,0.22-0.43,0.43-0.64,0.65
		c0.67,0.34,1.35,0.68,2.02,1.03c-0.01,0.78-0.02,1.55-0.02,2.33c0.21,0.22,0.43,0.43,0.65,0.64
		C1000.28,605.08,1000.28,603.86,1000.27,602.65C1000.27,602.65,1000.27,602.65,1000.27,602.65z M958.65,701.63
		c-0.33,0.33-0.67,0.67-1,1c0,0,0,0,0,0c-0.33,0.33-0.67,0.67-1,1c0.21,0.22,0.43,0.43,0.64,0.64c0.33-0.33,0.67-0.67,1-1
		c-0.11-0.11-0.22-0.22-0.32-0.32c0.11,0.11,0.22,0.22,0.32,0.32c0.33-0.33,0.67-0.67,1-1h0v0c0-0.88,0-1.76,0-2.64
		c-0.22,0.21-0.43,0.43-0.64,0.65C958.65,700.73,958.65,701.18,958.65,701.63C958.65,701.63,958.65,701.63,958.65,701.63z
		 M1000.28,606.3c-0.22-0.21-0.43-0.43-0.65-0.64c-0.33,0.34-0.67,0.67-1,1.01c0.21,0.21,0.43,0.42,0.64,0.64
		C999.61,606.97,999.95,606.63,1000.28,606.3z M991.64,598.3c0.67,0.33,1.33,0.67,2,1c0.22-0.21,0.43-0.43,0.64-0.65
		c-0.67-0.33-1.33-0.67-2-1C992.07,597.87,991.86,598.09,991.64,598.3z M997.28,600.66c-0.67-0.33-1.33-0.67-2-1c0,0,0,0,0,0
		c-0.33-0.33-0.67-0.67-1-1c-0.21,0.22-0.43,0.43-0.64,0.65c0.33,0.33,0.67,0.67,1,1c0.11-0.11,0.22-0.22,0.32-0.32
		c-0.11,0.11-0.22,0.22-0.32,0.33c0.67,0.33,1.33,0.67,2,1c0,0,0,0,0,0c0.33,0.33,0.67,0.67,1,1c0.21-0.22,0.43-0.43,0.64-0.65
		C997.95,601.32,997.62,600.99,997.28,600.66z M991.64,598.3c0.21-0.22,0.43-0.43,0.64-0.65c-0.33-0.33-0.67-0.67-1-1
		c-0.21,0.22-0.43,0.43-0.64,0.65C990.97,597.64,991.31,597.97,991.64,598.3z M955.65,704.63
		C955.65,704.63,955.65,704.63,955.65,704.63c-0.33,0.33-0.67,0.67-1,1c0.11,0.11,0.22,0.22,0.32,0.32
		c-0.11-0.11-0.22-0.21-0.32-0.32c-0.33,0.34-0.67,0.67-1,1.01c0,0,0,0,0,0c-0.14,0.35-0.27,0.7-0.41,1.05
		c0.35-0.14,0.7-0.28,1.05-0.41c-0.11-0.11-0.22-0.22-0.34-0.33c0.11,0.11,0.22,0.22,0.34,0.33c0.34-0.33,0.67-0.67,1.01-1l0,0
		c0.33-0.33,0.67-0.67,1-1c0.33-0.33,0.67-0.67,1-1c-0.22-0.21-0.43-0.43-0.64-0.64C956.31,703.97,955.98,704.3,955.65,704.63z
		 M981.7,602.71c-0.14-0.35-0.28-0.7-0.41-1.05c-0.21,0.21-0.42,0.43-0.63,0.64C981,602.44,981.35,602.57,981.7,602.71z
		 M988.64,596.3c0.21-0.22,0.43-0.43,0.64-0.65c-0.33-0.33-0.67-0.67-1-1c-0.21,0.22-0.43,0.43-0.64,0.65
		C987.97,595.64,988.31,595.97,988.64,596.3z M991.28,596.66c-0.67-0.33-1.33-0.67-2-1c-0.21,0.22-0.43,0.43-0.64,0.65
		c0.67,0.33,1.33,0.67,2,1C990.85,597.09,991.07,596.87,991.28,596.66z M988.28,594.66c-0.67-0.33-1.33-0.67-2-1
		c-0.22,0.21-0.43,0.43-0.64,0.65c0.67,0.33,1.33,0.67,2,1C987.85,595.09,988.07,594.87,988.28,594.66z M946.64,688.28
		C946.64,688.28,946.64,688.28,946.64,688.28c0.33,0.33,0.67,0.67,1,1c0,0,0,0,0,0c0.33,0.33,0.67,0.67,1,1
		c0.22-0.21,0.43-0.43,0.64-0.64c-0.33-0.33-0.67-0.67-1-1c-0.33-0.33-0.67-0.67-1-1c-0.33-0.33-0.67-0.67-1-1
		c-0.21,0.22-0.43,0.43-0.64,0.64C945.98,687.61,946.31,687.95,946.64,688.28z M920.65,680.28c0.22-0.21,0.43-0.43,0.64-0.64
		c-0.33-0.33-0.67-0.67-1-1c-0.21,0.22-0.43,0.43-0.64,0.64C919.98,679.61,920.31,679.95,920.65,680.28z M524.7,608.66
		c0.22,0.21,0.43,0.43,0.65,0.64c0.33-0.33,0.67-0.67,1-1c-0.22-0.21-0.43-0.43-0.65-0.64C525.37,607.99,525.04,608.32,524.7,608.66
		z M924.65,684.28C924.65,684.28,924.65,684.28,924.65,684.28c0.33,0.33,0.67,0.67,1,1c0,0,0,0,0,0c0.33,0.33,0.67,0.67,1,1
		c0,0,0,0,0,0c0.33,0.33,0.67,0.67,1,1c0.22-0.21,0.43-0.43,0.64-0.64c-0.33-0.33-0.67-0.67-1-1c-0.33-0.33-0.67-0.67-1-1
		c-0.33-0.33-0.67-0.67-1-1c-0.33-0.33-0.67-0.67-1-1c-0.21,0.22-0.43,0.43-0.64,0.64C923.98,683.61,924.31,683.95,924.65,684.28z
		 M923.65,683.28c0.22-0.21,0.43-0.43,0.64-0.64c-0.33-0.33-0.67-0.67-1-1c-0.21,0.22-0.43,0.43-0.64,0.64
		C922.98,682.61,923.31,682.95,923.65,683.28z M921.65,681.28C921.65,681.28,921.65,681.28,921.65,681.28c0.33,0.33,0.67,0.67,1,1
		c0.22-0.21,0.43-0.43,0.64-0.64c-0.33-0.33-0.67-0.67-1-1c-0.33-0.33-0.67-0.67-1-1c-0.21,0.22-0.43,0.43-0.64,0.64
		C920.98,680.61,921.31,680.95,921.65,681.28z M519.73,600.62c-0.67,0.34-1.35,0.68-2.02,1.03l0,0c-0.67,0.33-1.33,0.67-2,1
		c-0.99,0.66-1.99,1.32-2.98,1.97l0,0c-0.67,0.34-1.35,0.68-2.02,1.02c-1.66,0.99-3.32,1.98-4.98,2.97l0,0
		c-0.67,0.34-1.35,0.68-2.02,1.03c0.2,0.23,0.41,0.46,0.61,0.69c0.67-0.34,1.35-0.68,2.02-1.02c1.66-0.99,3.32-1.98,4.98-2.97l0,0
		c0.67-0.34,1.35-0.68,2.02-1.03c0.99-0.66,1.99-1.32,2.98-1.97c0,0,0,0,0,0c0.67-0.33,1.33-0.67,2-1
		c-0.09-0.11-0.19-0.21-0.28-0.32c0.09,0.11,0.19,0.21,0.28,0.32c0.67-0.34,1.35-0.68,2.02-1.02l0,0c0.99-0.66,1.99-1.32,2.98-1.97
		c-0.2-0.23-0.41-0.46-0.61-0.69C521.72,599.31,520.73,599.97,519.73,600.62L519.73,600.62z M497.61,531.36
		c1.91-0.34,3.83-0.69,5.74-1.03c-0.2-0.23-0.4-0.46-0.61-0.69c-1.76,0.11-3.53,0.22-5.29,0.34
		C497.5,530.44,497.55,530.9,497.61,531.36z M520.29,368.3c0.14,0.35,0.28,0.7,0.41,1.05c0.21-0.21,0.42-0.43,0.63-0.64
		C520.99,368.57,520.64,368.44,520.29,368.3z M520.71,369.35c0.67,0.34,1.34,0.68,2.01,1.02c0.2-0.23,0.41-0.45,0.61-0.68
		c-0.66-0.32-1.32-0.65-1.98-0.97C521.13,368.92,520.92,369.14,520.71,369.35z M522.72,370.37c0.66,0.33,1.33,0.66,1.99,0.99
		c0.21-0.21,0.43-0.43,0.64-0.65c-0.67-0.34-1.35-0.68-2.02-1.03C523.12,369.91,522.92,370.14,522.72,370.37z M516.34,380.71
		c-0.35-0.13-0.7-0.27-1.05-0.41c0.14,0.35,0.28,0.7,0.41,1.05c0.67,0.34,1.34,0.68,2.01,1.02c0.2-0.23,0.41-0.46,0.61-0.68
		C517.67,381.36,517,381.03,516.34,380.71C516.34,380.71,516.34,380.71,516.34,380.71z M936.64,696.28
		C936.64,696.28,936.64,696.28,936.64,696.28c0.33,0.33,0.67,0.67,1,1c0.22-0.21,0.43-0.43,0.64-0.64c-0.33-0.33-0.67-0.67-1-1
		c-0.33-0.33-0.67-0.67-1-1c-0.21,0.22-0.43,0.43-0.64,0.64C935.98,695.61,936.31,695.94,936.64,696.28z M941.64,701.28
		C941.64,701.28,941.64,701.28,941.64,701.28c0.33,0.33,0.67,0.67,1,1c0,0,0,0,0,0c0.33,0.33,0.67,0.67,1,1
		c0.22-0.21,0.43-0.43,0.64-0.64c-0.33-0.33-0.67-0.67-1-1c-0.33-0.33-0.67-0.67-1-1c-0.33-0.33-0.67-0.67-1-1
		c-0.21,0.22-0.43,0.43-0.64,0.64C940.98,700.61,941.31,700.94,941.64,701.28z M938.64,698.28
		C938.64,698.28,938.64,698.28,938.64,698.28c0.33,0.33,0.67,0.67,1,1c0,0,0,0,0,0c0.33,0.33,0.67,0.67,1,1
		c0.22-0.21,0.43-0.43,0.64-0.64c-0.33-0.33-0.67-0.67-1-1c-0.33-0.33-0.67-0.67-1-1c-0.33-0.33-0.67-0.67-1-1
		c-0.21,0.22-0.43,0.43-0.64,0.64C937.98,697.61,938.31,697.94,938.64,698.28z M945.64,705.28c0.22-0.21,0.43-0.43,0.64-0.64
		c-0.33-0.33-0.67-0.67-1-1c-0.21,0.22-0.43,0.43-0.64,0.64C944.98,704.61,945.31,704.94,945.64,705.28z M944.64,704.28
		c0.22-0.21,0.43-0.43,0.64-0.64c-0.33-0.33-0.67-0.67-1-1c-0.21,0.22-0.43,0.43-0.64,0.64
		C943.98,703.61,944.31,703.94,944.64,704.28z M946.64,706.28C946.64,706.28,946.64,706.28,946.64,706.28
		c0.34,0.33,0.67,0.67,1.01,1c0,0,0,0,0,0c0.35,0.14,0.7,0.27,1.05,0.41c-0.14-0.35-0.28-0.7-0.41-1.05c-0.33-0.34-0.67-0.67-1-1.01
		c-0.33-0.33-0.67-0.67-1-1c-0.21,0.22-0.43,0.43-0.64,0.64C945.98,705.61,946.31,705.94,946.64,706.28z M928.65,688.28
		C928.65,688.28,928.65,688.28,928.65,688.28c0.33,0.33,0.67,0.67,1,1c0.22-0.21,0.43-0.43,0.64-0.64c-0.33-0.33-0.67-0.67-1-1
		c-0.33-0.33-0.67-0.67-1-1c-0.21,0.22-0.43,0.43-0.64,0.64C927.98,687.61,928.31,687.95,928.65,688.28z M932.65,692.28
		C932.65,692.28,932.65,692.28,932.65,692.28c0.33,0.33,0.67,0.67,1,1c0,0,0,0,0,0c0.33,0.33,0.67,0.67,1,1
		c0.22-0.21,0.43-0.43,0.64-0.64c-0.33-0.33-0.67-0.67-1-1c-0.33-0.33-0.67-0.67-1-1c-0.33-0.33-0.67-0.67-1-1
		c-0.21,0.22-0.43,0.43-0.64,0.64C931.98,691.61,932.31,691.95,932.65,692.28z M930.65,690.28
		C930.65,690.28,930.65,690.28,930.65,690.28c0.33,0.33,0.67,0.67,1,1c0.22-0.21,0.43-0.43,0.64-0.64c-0.33-0.33-0.67-0.67-1-1
		c-0.33-0.33-0.67-0.67-1-1c-0.21,0.22-0.43,0.43-0.64,0.64C929.98,689.61,930.31,689.95,930.65,690.28z M935.64,695.28
		c0.22-0.21,0.43-0.43,0.64-0.64c-0.33-0.33-0.67-0.67-1-1c-0.21,0.22-0.43,0.43-0.64,0.64
		C934.98,694.61,935.31,694.94,935.64,695.28z M1007.19,464.81c0.56,10.43,0.98,20.88,0.96,31.32c-0.01,6.7-0.66,13.43-1.51,20.08
		c-0.4,3.1-1.98,6.05-2.98,9.09c-0.2,0.61,0.01,1.53-0.36,1.88c-2.41,2.29,6.61,0.17,1.42,3.89c-1.41,1.01-1.17,4.28-1.72,6.51
		c-4.22,17.12-9.24,33.96-16.83,49.95c-0.72,1.51-0.6,3.4-0.87,5.12v0c0.33,0.33,0.67,0.67,1,1c-0.21,0.21-0.43,0.43-0.64,0.65
		c-0.33-0.33-0.67-0.67-1-1c0,0,0-0.01,0.01-0.01c0,0-0.01,0.01-0.01,0.01c-2.22,2.34-5.9,4.1-3.36,8.36
		c-0.21,0.21-0.42,0.43-0.64,0.64c-1.33,1.32-3.02,2.42-3.93,3.99c-7.12,12.31-14.66,24.32-24.15,34.96
		c-7.28,8.16-14.79,16.12-22.16,24.2c-0.85,0.93-1.42,2.11-2.12,3.18c0.33,0.33,0.67,0.67,1,1c0.33,0.33,0.67,0.67,1,1
		c0.33,0.33,0.67,0.67,1,1c-0.21,0.22-0.43,0.43-0.64,0.64c-0.33-0.33-0.67-0.67-1-1c0,0,0,0,0,0c-0.33-0.33-0.67-0.67-1-1
		c0,0,0,0,0,0c-0.33-0.33-0.67-0.67-1-1c0,0,0,0,0,0c-0.96,0.27-2.18,0.26-2.85,0.86c-2.27,2.05-4.35,4.31-6.51,6.5
		c0.33,0.33,0.67,0.67,1,1c0.33,0.33,0.67,0.67,1,1c-0.21,0.22-0.43,0.43-0.64,0.64c-0.33-0.33-0.67-0.67-1-1c0,0,0,0,0,0
		c-0.33-0.33-0.67-0.67-1-1c0,0,0,0,0,0c-5.02,3.67-9.85,7.63-15.1,10.94c-10.31,6.5-20.84,12.65-31.29,18.93
		c-0.7,0.42-1.5,0.92-2.26,0.93c-2.46,0.02-4.93-0.18-7.39-0.3c1.82-1.24,3.51-2.75,5.48-3.68c16.05-7.62,30.58-17.57,44.68-28.28
		c2.44-1.85,1.52-2.67,0.07-4.1c-3.32-3.28-6.64-6.56-9.89-9.9c-3.08-3.17-3.18-3.82,0.16-6.85c7.62-6.91,5.25-7.27,12.82-0.01
		c3.2,3.07,6.49,6.04,9.74,9.06c3.11-3,6.22-5.99,9.31-9c15.87-15.46,28.82-33.1,39.48-52.48c1.79-3.25,1.22-4.93-2.04-6.49
		c-2.81-1.34-5.39-3.18-7.97-4.95c-3.04-2.08-2.82-2.83,0.18-7.26c1.86-2.75,3.37-2.33,5.64-0.57c2.59,2.01,5.61,3.46,8.24,5.44
		c1.98,1.49,2.95,0.81,3.76-1.05c7.81-17.99,14.44-36.35,18-55.73c0.61-3.31-1.57-3.21-3.3-3.58c-4.02-0.85-8.12-1.29-12.12-2.2
		c-0.81-0.18-1.94-1.76-1.86-2.58c1.11-11.11,1.09-10.68,12.11-9.11c7.67,1.09,8.4,3.9,8.6-6.88c0.23-11.61,0.78-23.22,0.91-34.83
		c0.05-4.94-0.58-9.89-1-14.83c-0.21-2.52-1.53-3.73-4.27-3.66c-5.83,0.15-11.67-0.11-17.49,0.1c-3.32,0.12-4.57-1.14-4.18-4.33
		c0.1-0.82,0.09-1.67,0.01-2.5c-0.27-2.74,0.8-3.9,3.67-3.82c5.16,0.16,10.34-0.21,15.49,0.12c3.52,0.23,4.4-1.15,3.79-4.2
		c-3.08-15.51-7.48-30.64-13.36-45.34c-1.02-2.54-2.4-3.1-4.9-1.99c-3.91,1.74-7.91,3.26-11.9,4.82c-2.2,0.86-3.68,0.61-4.88-1.98
		c-4.07-8.75-4.17-8.79,4.5-12.46c2.42-1.03,4.85-2.06,7.33-2.92c2.4-0.83,2.53-2.1,1.4-4.17c-7.01-12.9-14.41-25.55-23.43-37.2
		c-1.29-1.66-2.16-2.7-3.29-4.49l-4.3-3.32l-1.1,0.21l0.2-1.57c0,0-0.77-0.92-1.27-0.65c-3.35,1.77-6.6,3.72-9.88,5.62
		c-0.71,0.41-1.39,0.87-2.11,1.27c-4.54,2.48-9.43-0.03-9.64-5.16c-0.04-0.88,1.37-2.07,2.37-2.71c3.61-2.31,7.25-4.62,11.06-6.57
		c2.17-1.11,1.78-1.93,0.4-3.19c-9.31-8.49-18.54-17.05-27.95-25.42c-3.07-2.73-6.76-4.75-9.84-7.46c-2.55-2.24-3.68-1.6-5.27,1.03
		c-3.24,5.36-7.07,10.37-10.19,15.79c-1.73,3-3.37,2.47-5.59,1.13c-8.95-5.39-8.94-5.38-3.28-14.06c2.61-4,5.02-8.14,7.79-12.03
		c1.11-1.56,0.92-2.19-0.63-2.93c-13.41-6.35-26.8-12.74-40.23-19.07c-1.77-0.83-3.02-0.7-3.48,1.8c-0.61,3.38-1.75,6.67-2.62,10.01
		c-0.46,1.76-0.76,2.7-3.28,2.1c-7.4-1.75-7.46-1.52-5.62-9.13c2.18-9.05,2.29-9.5-6.98-11.66c-11.35-2.64-22.89-4.48-34.38-6.54
		c-2.71-0.49-6.5-1.62-7.99-0.35c-1.51,1.29-0.83,5.19-1.05,7.96c-0.36,4.61-0.81,9.22-0.94,13.84c-0.07,2.52-0.84,3.71-3.48,3.53
		c-1.99-0.13-4,0-6-0.02c-5.12-0.04-5.56-0.75-5.11-5.8c0.52-5.93,0.61-11.89,1.01-17.83c0.18-2.7-1.03-3.39-3.53-3.39
		c-11.6,0.02-23.18-0.09-34.69,1.92c-8.91,1.56-8.95,1.32-7.03,10.09c1.03,4.73,0.9,4.91-4.24,5.89c-3.69,0.7-4.59-0.16-5.58-4.15
		c-2.84-11.45-1.58-9.31-10.78-7.06c-15.22,3.73-30.11,8.39-44.38,15.02c-2.75,1.28-2.71,1.97-1.63,4.13
		c1.55,3.09,2.86,6.3,4.29,9.45c1.89,4.16,1.69,4.76-2.36,6.86c-7.47,3.86-7.48,3.86-11.19-3.67c-0.66-1.33-1.27-2.68-1.86-4.04
		c-2.82-6.51-1.96-6.19-7.62-2.69c-10.5,6.51-20.95,13.15-30.93,20.41c-6.93,5.04-13,11.24-19.56,16.81c-2.11,1.79-1.81,3,0.12,4.66
		c2.14,1.84,3.99,4.02,6.05,5.96c1.24,1.17,1.36,2.16,0.01,3.26c-0.26,0.21-0.47,0.47-0.7,0.71c-4.41,4.77-4.41,4.77-8.91,0.28
		c-5.8-5.8-6.11-6.06-11.58,0.34c-9.75,11.42-19.08,23.19-26.55,36.29c-2.13,3.73-3.8,7.78-6.33,11.19
		c-2.29,3.08-0.96,4.4,1.53,5.79c3.46,1.94,6.87,3.96,10.42,5.73c2.22,1.11,3.11,2.36,1.63,4.63c-0.18,0.27-0.27,0.6-0.41,0.9
		c-4.13,8.68-4.13,8.68-12.36,3.62c-8.76-5.38-8.55-5.29-12.31,4.14c-5.39,13.49-9.44,27.35-12.48,41.53
		c-0.03,0.16-0.19,0.29-0.21,0.45c-0.36,2.59-1.61,5.57-0.73,7.65c0.59,1.4,4.16,1.88,6.46,2.14c3.2,0.36,3.25,1.95,2.66,4.45
		c-1.23,5.17-1.16,5.19-6.42,4.34c-4.93-0.79-5.08-0.62-5.21,4.17c-0.3,11.95-0.8,23.89-0.92,35.83
		c-0.05,5.28,0.53,10.57,1.02,15.83c0.24,2.54,0.95,4.51,4.54,3.67c3.5-0.82,7.21-0.72,10.81-1.14c2.5-0.29,3.72,0.96,4.07,3.2
		c0.43,2.77,0.87,5.58,0.84,8.36c-0.01,0.67-1.76,1.76-2.81,1.9c-3.92,0.54-7.88,0.89-11.83,1.07c-2.27,0.1-2.98,1.02-2.5,3.13
		c4.02,17.33,8.73,34.44,16.36,50.6c1.27,2.68,2.32,5.46,3.54,8.17c0.92,2.04,1.99,3.59,4.32,1.28c2.7-2.67,4.08-0.13,5.12,1.73
		c1.16,2.08,3.81,4.82,0.03,6.6c-3.41,1.61-2.84,3.48-1.31,5.72c6.68,9.8,13.32,19.64,20.23,29.28c3.07,4.28,6.73,8.14,10.11,12.2
		c1.25,1.5,2.32,1.98,4.01,0.27c2.68-2.69,5.82-4.92,8.47-7.64c2.02-2.07,3.3-1.82,5.29,0.07c6.96,6.6,7.03,6.53,0.02,13.54
		c-1.86,1.86-5.14,3.74-5.13,5.61c0.01,1.94,3.11,3.96,5.02,5.79c11.61,11.15,24.61,20.53,38.28,28.87
		c16.21,9.89,33.44,17.84,51.51,23.71c13.28,4.32,26.86,7.48,40.73,9.73c18.16,2.95,36.32,2.75,54.55,2.71
		c3.11-0.01,6.22-0.69,9.34-0.89c0.82-0.05,1.67,0.54,2.51,0.83c-0.57,0.77-1.02,2.02-1.75,2.21c-3.62,0.97-7.31,2.21-11,2.33
		c-9.82,0.32-19.69,0.63-29.48,0.01c-28.61-1.81-56.34-7.76-82.94-18.7c-23.82-9.79-45.59-23.01-65.69-39.02
		c-4.27-3.4-8.64-6.92-11.99-11.15c-3.08-3.9-4.94-0.5-7.34,0.03c-0.33,0.33-0.67,0.67-1,1c-0.33,0.33-0.67,0.67-1,1
		c-0.33,0.33-0.67,0.67-1,1c-0.33,0.33-0.67,0.67-1,1c-0.33,0.33-0.67,0.67-1,1c-0.33,0.33-0.67,0.67-1,1c-0.33,0.33-0.67,0.67-1,1
		c-0.34,0.34-0.67,0.67-1.01,1.01c0,0,0,0,0,0c-1.33,1-2.66,1.99-3.99,2.99c-0.33,0.33-0.67,0.67-1,1c-0.33,0.33-0.67,0.67-1,1
		c-0.33,0.33-0.67,0.67-1,1c-0.33,0.33-0.67,0.67-1,1c-0.33,0.33-0.67,0.67-1,1c-0.33,0.33-0.67,0.67-1,1
		c-0.34,0.34-0.67,0.67-1.01,1.01c0,0,0,0,0,0c-1.33,1-2.66,1.99-3.99,2.99c-0.33,0.33-0.67,0.67-1,1c-0.33,0.33-0.67,0.67-1,1
		c-0.33,0.33-0.67,0.67-1,1c-0.33,0.33-0.67,0.67-1,1s-0.67,0.67-1,1c-0.33,0.33-0.67,0.67-1,1c-0.33,0.33-0.67,0.67-1,1
		c-0.22-0.22-0.43-0.43-0.65-0.65c0.33-0.33,0.67-0.67,1-1c-0.33,0.33-0.67,0.67-1,1c0.22,0.22,0.43,0.43,0.65,0.65
		c-0.34,0.34-0.67,0.67-1.01,1.01c0,0,0,0,0,0c-1.26,1.65-2.6,2.89-4.63,1c-0.34-0.34-0.67-0.67-1.01-1.01c0,0,0,0,0,0
		c-0.34-0.34-0.67-0.67-1.01-1.01c0,0,0,0,0,0c-0.66-1-1.33-1.99-1.99-2.99c0.22-0.21,0.43-0.43,0.65-0.64c-0.33-0.33-0.67-0.67-1-1
		c-0.22,0.21-0.43,0.43-0.65,0.64c-0.33-0.33-0.67-0.67-1-1c0.22-0.21,0.43-0.43,0.65-0.64c-0.22,0.21-0.43,0.43-0.65,0.64
		c-0.34-0.34-0.67-0.67-1.01-1.01c0.23-0.2,0.45-0.41,0.68-0.61c-0.23,0.2-0.45,0.41-0.68,0.61c0-0.54,0-1.08,0-1.62
		c0.23,0.2,0.46,0.4,0.69,0.6c-0.23-0.2-0.46-0.4-0.69-0.6c0.34-0.34,0.68-0.68,1.01-1.02c0.21,0.22,0.43,0.43,0.64,0.65
		c-0.21-0.22-0.43-0.43-0.64-0.65c0.33-0.33,0.67-0.67,1-1c0,0,0,0,0,0c0.34-0.34,0.67-0.67,1.01-1.01c0,0,0,0,0,0
		c1.33-1,2.66-1.99,3.99-2.99c0.33-0.33,0.67-0.67,1-1c0.21,0.22,0.43,0.43,0.64,0.65c-0.21-0.22-0.43-0.43-0.64-0.65
		c0.33-0.33,0.67-0.67,1-1c0,0,0,0,0,0c0.33-0.33,0.67-0.67,1-1c0,0,0,0,0,0c0.33-0.33,0.67-0.67,1-1c0,0,0,0,0,0
		c0.33-0.33,0.67-0.67,1-1c0,0,0,0,0,0c0.33-0.33,0.67-0.67,1-1c0,0,0,0,0,0c0.34-0.34,0.67-0.67,1.01-1.01c0,0,0,0,0,0
		c1-0.66,1.99-1.33,2.99-1.99c0.33-0.33,0.67-0.67,1-1c0,0,0,0,0,0c0.33-0.33,0.67-0.67,1-1c0,0,0,0,0,0c0.33-0.33,0.67-0.67,1-1
		c0,0,0,0,0,0c0.33-0.33,0.67-0.67,1-1c0,0,0,0,0,0c0.33-0.33,0.67-0.67,1-1c0,0,0,0,0,0c0.33-0.33,0.67-0.67,1-1c0,0,0,0,0,0
		c0.33-0.33,0.67-0.67,1-1c0,0,0,0,0,0c0.34-0.34,0.67-0.67,1.01-1.01c0,0,0,0,0,0c1.33-1,2.66-1.99,3.99-2.99v0
		c0.33-0.33,0.67-0.67,1-1c0,0,0,0,0,0c0.33-0.33,0.67-0.67,1-1c0,0,0,0,0,0c0.33-0.33,0.67-0.67,1-1c0,0,0,0,0,0
		c0.33-0.33,0.67-0.67,1-1c0,0,0,0,0,0c0.33-0.33,0.67-0.67,1-1c0,0,0,0,0,0c0.33-0.33,0.67-0.67,1-1c0,0,0,0,0,0
		c0.34-0.34,0.68-0.68,1.02-1.02c0,0,0,0,0,0c-3.26-4.26-6.67-8.41-9.76-12.79c-7.73-10.96-15.31-22.03-22.98-33.04
		c-0.41-0.59-1.09-1-1.64-1.49l0,0c-0.67,0.34-1.35,0.68-2.02,1.03l0,0c-0.66,0.32-1.31,0.64-1.97,0.96
		c-0.22-0.21-0.43-0.43-0.65-0.64c0.67-0.34,1.34-0.67,2.01-1.01c0.18,0.2,0.36,0.4,0.54,0.61c-0.18-0.2-0.36-0.41-0.54-0.61
		c0.67-0.34,1.35-0.68,2.02-1.02l0,0c-1.46-2.44-2.93-4.87-4.39-7.31c-0.67,0.34-1.35,0.68-2.02,1.02c-0.2-0.23-0.41-0.46-0.61-0.69
		c0.67-0.34,1.35-0.68,2.02-1.03l0,0c0-1.19,0.4-2.56-0.05-3.53c-8.45-17.87-15.07-36.37-19.32-55.69c-0.6-2.71-1.34-5.38-2.01-8.07
		c-0.2-0.23-0.4-0.46-0.61-0.69c0-1.5,0.06-3,0-4.49c-0.25-5.66-0.92-6.45-6.15-7.94c1.09-0.17,2.31-0.1,3.22-0.59
		c0.74-0.4,1.59-1.5,1.56-2.26c-0.46-11.56-1.3-23.11-1.53-34.67c-0.14-7.1,0.61-14.21,0.96-21.32c0.02-0.33,0.26-0.75,0.13-0.97
		c-0.68-1.13-1.44-2.21-2.18-3.31c2.03-0.28,2.71-1.25,3.2-3.46c0.73-3.36,0.76-5.25-4.05-4.72c4.56-0.97,5.28-3.69,6-7.2
		c3.45-16.93,7.97-33.57,15.02-49.44c0.77-1.74,0.56-3.91,0.81-5.88c-0.67-0.34-1.34-0.68-2.01-1.02c0.2-0.23,0.41-0.46,0.61-0.68
		c0.67,0.34,1.34,0.68,2.01,1.02c0,0,0,0,0,0c2.46-3.1,5.61-5.84,5.37-10.34c0.21-0.22,0.43-0.43,0.64-0.65
		c5.34-8.63,10.2-17.6,16.13-25.8c7.49-10.35,15.85-20.07,23.81-30.08c0.58-0.73,0.94-1.64,1.4-2.47c0.21-0.22,0.43-0.43,0.64-0.65
		c1.79-1.78,3.57-3.57,5.36-5.35c0.21-0.22,0.43-0.43,0.64-0.65c3.79-3.1,7.71-6.05,11.34-9.32c12.29-11.07,25.88-20.29,40.12-28.65
		c2.74-1.61,5.27-3.58,7.89-5.39c-0.14-0.35-0.28-0.7-0.41-1.05c0.35,0.14,0.7,0.27,1.05,0.41c0,0,0,0,0,0
		c2.77-0.96,5.64-1.7,8.25-2.98c1.01-0.5,1.42-2.21,2.11-3.38c-0.33-0.67-0.67-1.33-1-2l0,0c-0.33-0.67-0.66-1.33-0.99-2
		c-0.14-0.35-0.28-0.7-0.41-1.05c0.35,0.14,0.7,0.27,1.05,0.41c0,0,0,0,0,0c0.35,0.68,0.69,1.35,1.04,2.03
		c-0.11,0.09-0.21,0.19-0.32,0.28c0.11-0.09,0.21-0.19,0.32-0.28c0.33,0.67,0.67,1.33,1,2l0,0c1.8,2.93,3.92,0.98,5.82,0.27
		c7.7-2.91,15.23-6.33,23.05-8.82c8.13-2.59,16.52-4.33,24.8-6.46c1.11-0.29,2.23-0.6,3.3-1.01c1.37-0.51,2.86-2.55,3.18,1.11
		c0.17,1.88,6.34,1.43,6.9-0.76c0.56-2.19,1.16-2.22,3.36-2.54c14.28-2.11,28.59-3.04,43.02-2.89c1.24,0.01,2.51-2.08,3.76-2.08
		c1.27,0.01,2.47,1.58,3.83,2.12c0.86,0.34,1.97,0.08,2.97,0.07c2.61-0.05,5.82,0.76,6.01-3.31c0.68,5.72,5.66,4.82,8.89,5.14
		c14.64,1.45,28.89,4.58,42.96,8.7c1.08,0.32,2.27,0.3,3.4,0.44c0.23,0.2,0.46,0.4,0.69,0.6c2.53,0.43,5.11,0.69,7.57,1.36
		c1.27,0.35,2.27,1.59,3.52,2.15c4.19,1.86,8.53,3.4,12.65,5.39c9.29,4.49,18.46,9.24,27.76,13.74c1.4,0.68,3.19,0.53,4.8,0.76
		c0.33-0.67,0.67-1.33,1-2c0.34-0.67,0.68-1.35,1.02-2.02c0.23,0.2,0.46,0.41,0.69,0.61v0c-0.23-0.2-0.46-0.4-0.69-0.61
		c0.34-0.34,0.67-0.67,1.01-1.01c0,0,0,0,0,0c0.33-0.66,0.66-1.33,0.99-1.99c0.23,0.2,0.46,0.41,0.69,0.61
		c-0.23-0.2-0.46-0.4-0.69-0.61c0.34-0.34,0.67-0.67,1.01-1.01c0,0,0,0,0,0c0.33-0.66,0.66-1.33,0.99-1.99l0,0
		c0.34-0.34,0.67-0.67,1.01-1.01c0,0,0,0,0,0c0.33-0.66,0.66-1.33,0.99-1.99c0.34-0.34,0.67-0.67,1.01-1.01
		c0.22,0.21,0.43,0.43,0.65,0.64c-0.22-0.21-0.43-0.43-0.65-0.64c0.33-0.66,0.66-1.33,0.99-1.99c0.34-0.34,0.67-0.67,1.01-1.01
		c0.22,0.21,0.43,0.43,0.65,0.64c-0.22-0.21-0.43-0.43-0.65-0.64c0.33-0.66,0.66-1.32,0.98-1.98c0,0,0,0,0,0c0.67-1,1.33-2,2-3
		c0.23,0.2,0.46,0.4,0.69,0.61c-0.23-0.2-0.46-0.4-0.69-0.61c0.67-1,1.33-2,2-3c0.23,0.2,0.46,0.4,0.69,0.61v0
		c-0.23-0.2-0.46-0.4-0.69-0.61c0.66-0.99,1.32-1.99,1.98-2.98c0.34-0.67,0.68-1.35,1.02-2.02c0.34-0.34,0.67-0.67,1.01-1.01
		c0.22,0.21,0.43,0.43,0.65,0.64c-0.22-0.21-0.43-0.43-0.65-0.64c0.33-0.66,0.66-1.33,0.99-1.99c0.23,0.2,0.45,0.41,0.68,0.61
		c-0.23-0.2-0.45-0.41-0.68-0.61c0.34-0.34,0.68-0.68,1.02-1.02c0,0,0,0,0,0c0.87,0,1.75,0,2.62,0c0.34,0.34,0.67,0.67,1.01,1.01
		c-0.21,0.22-0.43,0.43-0.64,0.65c0.21-0.22,0.43-0.43,0.64-0.65c0.66,0.33,1.33,0.66,1.99,0.99c0.34,0.34,0.67,0.67,1.01,1.01
		c-0.21,0.22-0.43,0.43-0.64,0.65c0.21-0.22,0.43-0.43,0.64-0.65c0.66,0.33,1.33,0.66,1.99,0.99c0.34,0.34,0.67,0.67,1.01,1.01
		c0,0,0,0,0,0c2.54,0.5,2.24,2.1,1.25,3.67c-1.29,2.05-2.8,3.97-4.22,5.94c-0.67,1-1.33,2-2,3c-0.24-0.2-0.48-0.39-0.71-0.59
		c-0.67,1-1.33,2-2,3c0.67-1,1.33-2,2-3c0.24,0.2,0.48,0.39,0.71,0.59c-0.67,1.01-1.35,2.01-2.02,3.02c0,0,0,0,0,0
		c-2.5,4.23-4.98,8.48-7.53,12.68c-0.85,1.41-1.94,2.67-2.85,4.04c-3.77,5.74-3.63,5.58,1.9,9.63c12.69,9.28,24.72,19.35,35.6,30.76
		c1.37,1.43,3.46,2.18,5.21,3.24c0.34-0.34,0.67-0.67,1.01-1.01c0.04,0.05,0.07,0.08,0.1,0.11c-0.03-0.03-0.06-0.06-0.1-0.11
		c0.67-0.33,1.34-0.67,2.01-1c0.66-0.33,1.32-0.66,1.99-0.99c0.34-0.34,0.67-0.67,1.01-1.01c0,0,0,0,0,0
		c0.67-0.34,1.35-0.69,2.02-1.03c0,0,0,0,0,0c0.67-0.33,1.33-0.67,2-1c0,0,0,0,0,0c0.66-0.32,1.31-0.64,1.97-0.96
		c0.21,0.22,0.21,0.22,0,0c0.34-0.34,0.67-0.67,1.01-1.01c0,0,0,0,0,0c0.87,0,1.75,0,2.62,0c0.34,0.34,0.68,0.68,1.02,1.02
		c0,0,0,0,0,0c0.34,0.67,0.67,1.34,1.01,2.01c0.34,0.67,0.68,1.34,1.02,2.02c-0.05,0.04-0.07,0.06-0.1,0.08
		c0.03-0.02,0.06-0.05,0.1-0.08c0.34,0.67,0.67,1.34,1.01,2.01c-0.26,0.18-0.52,0.36-0.79,0.53c-1.53,1.25-3.05,2.5-4.58,3.75
		l-0.04,0.02c-0.64,0.31-1.29,0.63-1.93,0.94l-0.08,0.05c-0.64,0.32-1.28,0.63-1.92,0.95l-0.07,0.06c-0.31,0.31-0.62,0.62-0.93,0.93
		c0,0-0.07,0.06-0.07,0.06c-0.64,0.32-1.28,0.63-1.92,0.95l-0.08,0.05c-0.64,0.32-1.28,0.63-1.92,0.95l-0.09,0.04
		c0.01,0.01,0.02,0.02,0.04,0.02c0.43,0.8,4.64,6.33,6.35,8.45c9.56,11.83,17.6,24.63,24.44,38.21c1.01,2.01,1.38,5.46,5.24,4.23
		c0.13,0.64,0.17,1.31,0.4,1.92c1.15,3.03,2.3,6.07,3.59,9.05c0.18,0.42,1.11,0.52,1.69,0.76c0.62-0.16,1.25-0.33,1.87-0.49
		c-0.43,0.38-0.86,0.77-1.28,1.15c0,0,0,0,0,0c-2.19,0.95-2.79,1.89-1.64,4.59c6.84,16.1,11.09,33.02,14.42,50.13
		C1006.41,450.2,1006.79,457.55,1007.19,464.81z M915.62,249.77L915.62,249.77c1.01-2.79,2.02-5.59,3.03-8.38
		C917.64,244.18,916.63,246.97,915.62,249.77z M535.35,694.63c-0.32-0.33-0.65-0.65-0.97-0.98h0
		C534.7,693.98,535.03,694.31,535.35,694.63z M540.35,677.29c-0.21-0.21-0.41-0.42-0.62-0.62
		C539.94,676.87,540.14,677.08,540.35,677.29L540.35,677.29z M554.32,664.32c-0.14-0.16-0.29-0.32-0.43-0.48
		C554.03,663.99,554.18,664.15,554.32,664.32L554.32,664.32z M895.3,259.38c-0.11-0.11-0.22-0.22-0.33-0.33
		C895.08,259.16,895.19,259.27,895.3,259.38c-0.32,0.33-0.65,0.65-0.97,0.98C894.65,260.03,894.98,259.7,895.3,259.38z"/>
	<path class="st2" d="M747.84,150.81c4.17,0,8.33-0.07,12.5,0.01c15.7,0.31,31.22,2.17,46.71,4.76
		c21.16,3.54,41.84,8.81,61.95,16.17c22.2,8.13,43.64,17.99,63.44,31c12.39,8.14,24.79,16.38,36.36,25.61
		c14.26,11.37,27.36,24.08,39.44,37.86c11.02,12.57,21.33,25.61,30.5,39.57c17.41,26.51,30.92,54.9,39.92,85.26
		c4.85,16.36,8.33,33.1,10.79,50.09c3.14,21.64,3.41,43.35,2.51,65.02c-0.58,14.06-3.64,28.02-5.62,42.03
		c-2.38,16.87-7.4,33.05-13.09,49.02c-7.49,21.04-16.9,41.25-28.91,60.09c-8.05,12.63-17.01,24.69-25.8,36.84
		c-3.28,4.54-7.16,8.66-10.94,12.81c-0.75,0.82-2.33,1.2-3.55,1.23c-4.66,0.14-9.33,0.1-14,0.02c-0.88-0.01-1.76-0.49-2.64-0.75
		c0.51-0.8,0.94-1.67,1.55-2.39c8.29-9.66,17.12-18.9,24.81-29.02c14-18.42,26.09-38.02,35.58-59.27
		c9.24-20.69,16.94-41.81,21.36-64.03c2.05-10.31,3.25-20.78,4.98-31.15c2.74-16.48,2.32-33.11,1.8-49.67
		c-0.36-11.49-2.47-22.91-3.56-34.39c-1.81-19-7.76-36.99-13.43-55.03c-2.36-7.52-5.69-14.74-8.77-22.02
		c-7.75-18.31-17.44-35.58-28.95-51.75c-7.45-10.46-15.3-20.71-23.7-30.42c-8.25-9.54-16.92-18.85-26.3-27.26
		c-15.85-14.21-32.96-26.86-51.26-37.89c-20.57-12.4-42.26-22.33-64.85-30.3c-17.4-6.13-35.41-10.13-53.54-13.33
		c-9.88-1.75-19.97-2.61-30-3.09c-14.93-0.72-29.93-1.61-44.82-0.85c-18.89,0.96-37.59,3.99-56.12,8.14
		c-18.22,4.08-35.85,9.81-53.11,16.77c-5.05,2.03-9.94,4.47-14.84,6.85c-2.49,1.21-4.51,1.34-6.74-0.75
		c-2.14-2.02-4.81-3.47-7.13-5.32c-1.84-1.46-2.06-2.75,0.48-4.01c16.25-8.12,32.93-15.28,50.38-20.29
		c14.03-4.03,28.26-7.43,42.53-10.51c8.5-1.83,17.22-2.8,25.9-3.61c12.68-1.19,25.41-1.89,38.12-2.8
		C747.8,150.31,747.82,150.56,747.84,150.81z M747.39,821.54c12.27-0.45,24.55-0.85,36.82-1.37c3.12-0.13,6.23-0.61,9.33-1.07
		c0.72-0.11,1.37-0.77,2.04-1.18c-0.47-0.74-0.78-1.71-1.43-2.2c-3.97-2.95-7.91-5.95-12.09-8.58c-1.54-0.97-3.7-1.45-5.54-1.36
		c-9.57,0.48-19.12,1.51-28.69,1.78c-6.43,0.18-12.89-0.54-19.34-0.91c-5.28-0.31-10.62-0.31-15.83-1.13
		c-12.98-2.05-25.96-4.23-38.84-6.83c-23.34-4.71-45.8-12.33-67.3-22.45c-18.23-8.57-35.68-18.54-52.16-30.33
		c-17.27-12.36-33.1-26.2-47.92-41.34c-15.22-15.54-28.28-32.69-39.94-50.99c-12.55-19.7-22.92-40.5-30.51-62.57
		c-6.8-19.77-12.64-39.85-14.73-60.78c-1.5-14.93-2.77-29.89-3.87-44.86c-0.26-3.57,0.63-7.22,0.9-10.84
		c0.37-5.11,0.39-10.26,1.03-15.33c1.5-11.91,2.78-23.88,5.04-35.66c4.78-24.83,12.81-48.67,23.59-71.55
		c7.97-16.91,17.68-32.82,28.26-48.22c0.52-0.75,0.83-1.65,1.24-2.48c-0.94-0.17-1.89-0.47-2.83-0.49
		c-3.33-0.06-6.69,0.25-9.99-0.11c-3.12-0.34-5.01,0.96-6.45,3.41c-5.53,9.37-11.27,18.63-16.5,28.16
		c-11.22,20.47-19.95,42-25.92,64.56c-3.48,13.17-6.42,26.51-8.86,39.91c-1.71,9.38-2.97,18.98-3,28.49
		c-0.07,20.23-1.54,40.53,1.81,60.67c1.56,9.41,2.56,18.93,4.6,28.23c4.02,18.33,9.42,36.25,16.38,53.75
		c8.7,21.89,19.68,42.6,32.74,62.06c8.9,13.24,18.91,25.9,29.65,37.7c14.84,16.31,30.55,31.92,48.81,44.51
		c13.54,9.34,27.31,18.42,41.52,26.68c10.68,6.21,21.98,11.53,33.44,16.17c20.9,8.47,42.4,15.14,64.58,19.65
		c18.49,3.76,37.08,6.06,55.91,6.55c4.66,0.12,9.33,0.02,14,0.02C747.38,821.32,747.38,821.43,747.39,821.54z"/>
	<path class="st1" d="M701.64,144.13c-38.43,4.82-75.22,15.55-110.21,32.28c-3.6,1.72-7.19,3.5-10.67,5.45
		c-0.65,0.36-1.31,2.01-1.02,2.51c1.46,2.5,5.07,3.04,7.76,1.85c12.93-5.73,25.71-11.91,38.95-16.83
		c12.15-4.51,24.7-8.14,37.31-11.19c12.28-2.96,24.82-4.9,37.31-6.89c8.45-1.34,17-2.7,25.52-2.81c16.11-0.2,32.23,0.24,48.33,0.94
		c9.2,0.4,18.47,1.25,27.5,2.98c15.96,3.07,31.93,6.37,47.6,10.68c25.72,7.08,49.81,18.25,73.06,31.28
		c22.27,12.48,42.73,27.53,61.65,44.55c14.31,12.88,27.62,26.89,39.27,42.26c14.66,19.34,27.77,39.64,38.18,61.71
		c10.17,21.55,18.17,43.73,23.9,66.84c4.49,18.13,7.31,36.54,8.34,55.07c0.89,16.04,0.02,32.23-0.85,48.31
		c-0.61,11.16-1.85,22.38-4.06,33.32c-3.02,14.96-6.34,29.98-11.15,44.44c-7.45,22.39-17.06,43.94-29.34,64.23
		c-10.18,16.83-21.47,32.84-34.07,47.94c-1.23,1.47-2.32,3.05-3.48,4.58c2.72-0.01,5.47,0.18,8.15-0.15c0.9-0.11,1.7-1.5,2.44-2.39
		c20.76-24.81,37.88-51.92,50.9-81.53c21.26-48.33,30.89-98.84,28.48-151.7c-1.04-22.88-4.03-45.43-9.66-67.57
		c-14.32-56.32-41.05-106.15-80.8-148.49C939.71,179.9,851.11,143.07,743.9,140.85C732.16,141.73,716.81,142.23,701.64,144.13z
		 M802.75,827.96c1.82-0.18,3.63-0.51,5.39-1c0.29-0.08,0.45-1.96,0.32-2.01c-3.26-1.17-5.68-4.36-9.87-3.41
		c-3.67,0.83-7.53,0.86-11.31,1.19c-11.01,0.98-22,2.27-33.03,2.79c-6.92,0.32-13.89-0.45-20.83-0.89
		c-9.23-0.58-18.52-0.84-27.66-2.08c-13.02-1.78-26.11-3.59-38.84-6.74c-15.46-3.83-30.75-8.55-45.77-13.85
		c-17.75-6.26-34.53-14.73-50.91-24.13c-21.29-12.23-40.99-26.58-59.14-42.97c-9.97-9.01-19.29-18.84-28.05-29.03
		c-9.54-11.12-18.55-22.77-26.96-34.77c-10.9-15.56-19.84-32.3-27.64-49.67c-7.38-16.42-13.27-33.37-17.89-50.7
		c-3.93-14.76-7.23-29.73-8.31-45.08c-0.86-12.35-2.15-24.67-2.83-37.02c-0.28-5.08,0.51-10.22,0.91-15.33
		c0.98-12.51,1.25-25.13,3.22-37.49c3.13-19.64,8.02-38.9,14.58-57.77c8.88-25.55,20.73-49.54,35.33-72.24
		c0.86-1.34,1.42-2.87,2.12-4.32c-1.91-0.19-3.89-0.77-5.7-0.44c-1.22,0.22-2.59,1.52-3.24,2.7c-7.7,13.99-16.12,27.68-22.75,42.17
		c-26.62,58.13-36.15,119.04-28.27,182.62c5.37,43.33,18.52,84.13,39.83,122.17c34.39,61.38,83.02,108.26,145.37,140.87
		c52.2,27.3,107.93,40.23,175.72,40.87C766,831.48,784.38,829.74,802.75,827.96z"/>
	<linearGradient id="SVGID_3_" gradientUnits="userSpaceOnUse" x1="734.5645" y1="767.9989" x2="1276.7198" y2="767.9989">
		<stop  offset="0.1246" style="stop-color:#FCD17A"/>
		<stop  offset="0.4964" style="stop-color:#FCCB53"/>
		<stop  offset="0.5745" style="stop-color:#F7B742"/>
	</linearGradient>
	<path class="st3" d="M1274.78,710.7c0.71,4.77,1.82,8.86,1.84,12.96c0.15,29.98,0.06,59.96,0.1,89.94
		c0.01,5.53-1.22,10.57-6.33,12.84c-2.9,1.29-6.39,1.47-9.62,1.47c-54.76,0.08-89.52,0.06-144.28,0.06
		c-96.43,0-192.86-0.02-289.29,0.02c-9.88,0-18.88-2.68-27.07-8.64c-20.41-14.85-40.91-29.57-61.36-44.36
		c-5.67-4.1-5.59-9.9,0.16-14.03c21.09-15.16,42.2-30.29,63.28-45.47c6.78-4.88,14.13-7.5,22.39-7.49
		c152.3,0.04,284.6,0.02,436.89,0.14C1265.53,708.14,1269.57,709.66,1274.78,710.7z"/>
	<linearGradient id="SVGID_4_" gradientUnits="userSpaceOnUse" x1="104.042" y1="230.5563" x2="651.3011" y2="254.6103">
		<stop  offset="0.1246" style="stop-color:#FCD17A"/>
		<stop  offset="0.4964" style="stop-color:#FCCB53"/>
		<stop  offset="0.5745" style="stop-color:#F7B742"/>
	</linearGradient>
	<path class="st4" d="M651.35,241.4c-2.42,2.86-3.94,5.63-6.26,7.26c-21.83,15.29-47.87,36.97-59.73,45.55
		c-6.96,4.81-14.6,7.28-23.12,7.27c-65.07-0.06-130.14,0.06-195.21-0.11c-95.26-0.25-157.51-0.69-252.77-1.06
		c-7.08-0.03-10.65-3.04-10.66-9.42c-0.06-34.24-0.03-68.49-0.03-103.17c1.63-1.51,3.42-3.17,5.41-5.01c2.09,0,4.37,0,6.64,0
		c140.79,0,248.59,0.04,389.38-0.05c19.14-0.01,38.29-0.56,57.43-1.16c8.48-0.27,15.83,2.45,22.6,7.06
		c13.7,9.34,51.09,38.98,58.91,44.68C646.69,235.24,648.64,238.35,651.35,241.4z"/>
	<path class="st1" d="M634.92,242.41c-2.12,2.51-3.45,4.93-5.48,6.36c-19.12,13.39-38.36,26.62-57.57,39.89
		c-6.09,4.21-12.79,6.37-20.25,6.37c-56.99-0.06-113.98,0.05-170.97-0.1c-83.43-0.22-166.86-0.61-250.28-0.93
		c-6.2-0.02-9.32-2.67-9.33-8.25c-0.05-29.99-0.02-59.98-0.02-90.36c1.43-1.32,2.99-2.77,4.74-4.39c1.83,0,3.82,0,5.82,0
		c123.31,0,246.62,0.04,369.93-0.04c16.77-0.01,33.54-0.49,50.3-1.02c7.43-0.23,13.87,2.15,19.79,6.19
		c12,8.18,23.88,16.55,35.84,24.78c6.98,4.81,14.15,9.36,21,14.35C630.84,237.01,632.54,239.74,634.92,242.41z M126.84,292
		c1.86,0,3.52,0,5.19,0c140.32,0,280.64-0.01,420.96,0.04c6.15,0,11.62-1.83,16.58-5.16c8.8-5.92,17.44-12.09,26.18-18.1
		c10.23-7.02,20.51-13.95,30.74-20.97c1.89-1.29,3.62-2.81,5.89-4.58c-2.48-2.6-3.82-4.55-5.64-5.82
		c-18.34-12.79-36.82-25.39-55.13-38.23c-5.99-4.2-12.47-6.16-19.68-6.18c-109.6-0.33-219.2-0.68-328.79-0.99
		c-29.5-0.08-58.99-0.01-88.49-0.01c-0.67,0-1.35-0.1-2,0.02c-7.53,1.38-9.78,2.84-9.73,10.13c0.19,27.16,0.11,54.33,0.04,81.49
		C122.95,287,123.64,289.83,126.84,292z"/>
	<path class="st1" d="M1261.27,722.28c0.64,4.06,1.64,7.54,1.66,11.02c0.14,25.49,0.06,50.99,0.09,76.48
		c0.01,4.7-1.11,8.99-5.72,10.92c-2.62,1.09-5.78,1.25-8.69,1.25c-49.49,0.07-98.98,0.05-148.46,0.05
		c-87.15,0-174.29-0.01-261.44,0.02c-8.93,0-17.06-2.27-24.47-7.34c-18.45-12.63-36.97-25.15-55.45-37.72
		c-5.12-3.49-5.05-8.42,0.14-11.93c19.06-12.89,38.14-25.75,57.19-38.67c6.13-4.15,12.77-6.37,20.24-6.37
		c137.63,0.03,275.27,0.01,412.9,0.12C1252.9,720.1,1256.55,721.39,1261.27,722.28z M1259.95,723.83
		c-4.12-0.68-7.58-1.73-11.05-1.76c-20.83-0.16-41.65-0.08-62.48-0.08c-116.63,0-233.26-0.01-349.88,0.02
		c-6.64,0-12.86,1.48-18.51,5.36c-18.56,12.74-37.26,25.29-55.85,38c-2.05,1.4-3.72,3.37-6.2,5.65c2.99,2.68,5.15,5.09,7.75,6.85
		c17.95,12.18,35.95,24.28,54.02,36.29c5.52,3.67,11.62,5.84,18.41,5.84c137.62-0.02,275.24,0,412.86-0.11
		c3.6,0,7.2-1.35,11.07-2.13c0.36-4.14,0.87-7.38,0.88-10.62c0.07-24.33,0.07-48.65,0-72.98
		C1260.95,731.12,1260.38,728.05,1259.95,723.83z"/>
	<path id="PREVI" class="st1" d="M558.57,285.73c-6.37,0-12.79,0-19.35,0c3.55-27.19,7.07-54.22,10.62-81.47c6.45,0,12.54,0,19.28,0
		C565.6,231.47,562.1,258.47,558.57,285.73z M537.59,204.22c-7.77,0-14.55,0-21.26,0c-5.89,12.94-11.68,25.69-17.48,38.43
		c-0.29-0.06-0.59-0.12-0.88-0.18c-2.48-12.75-4.96-25.49-7.4-38.09c-7.3,0-14.33,0-21.33,0c5.29,27.46,10.5,54.56,15.69,81.52
		c5.77,0,10.59,0,15.79,0C513.02,258.63,525.2,231.66,537.59,204.22z M447.79,263.98c-16.67,0-32.96,0-49.15,0
		c0.21-2.71,0.4-5.1,0.62-7.94c13.56,0,26.98,0,40.95,0c0.96-7.42,1.88-14.46,2.87-22.06c-13.52,0-26.6,0-39.76,0
		c0-2.89,0-5.27,0-8.15c16.72,0,33.12,0,49.51,0c0.94-7.48,1.81-14.46,2.69-21.45c-0.27-0.1-0.58-0.31-0.89-0.31
		c-18.99-0.03-37.97-0.12-56.96,0.04c-1.91,0.02-4.07,1.21-5.64,2.45c-5.1,4.04-6.71,9.73-7.38,16c-0.96,8.93-2.47,17.81-3.63,26.72
		c-0.83,6.34-0.91,12.83-2.33,19.03c-1.72,7.51,0.27,13.12,5.84,17.53c20.23,0,40.02,0,60.29,0
		C445.83,278.39,446.78,271.37,447.79,263.98z M342.21,285.71c6.72,0,13.12,0,20.06,0c-4.08-9.09-7.96-17.74-11.9-26.52
		c10.74-0.52,16.68-6.21,17.64-16.42c0.32-3.42,0.87-6.82,1.21-10.25c0.63-6.37,1.65-12.74,1.62-19.11
		c-0.02-4.6-3.28-9.39-8.25-9.39c-18.97-0.03-37.94-0.01-57.86-0.01c-3.58,27.21-7.15,54.32-10.75,81.73c6.4,0,12.49,0,19,0
		c1.35-8.97,2.69-17.87,4.01-26.64c4.74,0,8.56,0,13.14,0C334.22,268.09,338.25,276.97,342.21,285.71z M319.85,236.72
		c0.41-3.49,0.82-6.92,1.24-10.51c10,0,19.6,0,29.89,0c-0.47,3.38-0.93,6.62-1.47,10.51C339.58,236.72,330.16,236.72,319.85,236.72z
		 M267.88,259.13c8.95,0.44,14.31-4.98,16.13-12.09c2.6-10.18,3.81-20.56,4.04-31.08c0.11-5.07-1.82-8.87-5.56-11.77
		c-20.16,0-40.1,0-60.63,0c-3.56,27.21-7.11,54.31-10.66,81.43c6.54,0,12.77,0,19.18,0c1.2-9.01,2.35-17.68,3.53-26.62
		C245.64,259,256.78,258.59,267.88,259.13z M266.79,236.68c-9.7,0-19.43,0-30.01,0c0.48-3.54,0.93-6.96,1.41-10.5
		c9.99,0,19.58,0,30.06,0C267.73,229.92,267.28,233.14,266.79,236.68z"/>
	<path id="AUTOS" class="st1" d="M1189.77,788.12c0-2.75,0-4.69,0-6.99c-15.49,0-30.75,0-46.88,0c0.37-2.26,0.73-4.05,0.96-5.86
		c1.07-8.29,1.96-16.6,3.22-24.86c0.51-3.32,1.35-6.74,2.83-9.73c2.47-5,6.31-7.9,12.54-7.78c15.99,0.32,31.99,0.11,47.98,0.11
		c1.79,0,3.58,0,5.42,0c-1.05,6.93-2.03,13.33-3.04,20.01c-16,0-31.62,0-47.48,0c-0.24,2.38-0.45,4.47-0.7,6.99
		c6.59,0,13.37,0,20.15,0c7.5,0,14.99-0.04,22.49,0.04c1.52,0.02,3.03,0.48,4.51,0.73c-0.98,7.76-1.78,14.87-2.8,21.95
		c-0.7,4.84-1.34,9.73-2.65,14.41c-2.32,8.28-7.41,11.87-15.79,11.87c-15.33,0-30.65,0-45.98,0c-1.79,0-3.57,0-5.46,0
		c1-7.19,1.92-13.81,2.91-20.88C1157.91,788.12,1173.66,788.12,1189.77,788.12z M1080.51,732.95c-3.77-0.03-6.15,1.88-8.32,4.53
		c-4.31,5.28-4.31,11.8-5.18,18.06c-1.1,7.95-2.25,15.89-3.16,23.86c-0.77,6.69-1.66,13.41-1.7,20.12c-0.03,4.69,3.68,9.74,9.7,9.59
		c14.16-0.35,28.33,0.02,42.49-0.24c2.36-0.04,5.29-1.23,6.91-2.9c2.42-2.49,4.87-5.67,5.61-8.93c1.88-8.42,2.85-17.05,4.14-25.6
		c0.95-6.31,2.21-12.6,2.65-18.94c0.48-6.9,2.66-14.52-5.7-19.49C1112.16,733,1096.33,733.07,1080.51,732.95z M1114.89,753.26
		c-1.64,11.67-3.24,23.07-4.84,34.48c-9.99,0-19.41,0-28.94,0c1.64-11.68,3.25-23.08,4.85-34.48
		C1095.95,753.26,1105.37,753.26,1114.89,753.26z M1030.56,752.83c8.18,0,16.04,0,23.96,0c0.87-7.01,1.64-13.23,2.44-19.67
		c-22.17,0-43.77,0-66.12,0c-0.91,6.4-1.82,12.78-2.82,19.78c8.02,0,15.92,0,23.84,0c-2.61,18.96-5.15,37.32-7.7,55.88
		c6.35,0,12.29,0,18.64,0C1025.39,790.11,1027.92,771.84,1030.56,752.83z M910.2,733.26c-0.45,4.13-0.78,8.05-1.31,11.93
		c-1.25,9.24-2.61,18.46-3.89,27.69c-0.77,5.51-1.16,11.1-2.29,16.53c-1.29,6.21-1.37,12.01,3.48,18.21
		c2.31,0.37,5.46,1.26,8.62,1.31c12.49,0.17,24.99,0.07,37.49,0.07c7.62,0,12.93-3.37,14.59-11.02c2.25-10.34,3.48-20.91,5.09-31.38
		c0.96-6.3,1.85-12.62,2.67-18.94c0.61-4.67,1.05-9.36,1.6-14.38c-6.41,0-12.16,0-18.33,0c-2.54,18.18-5.07,36.25-7.62,54.49
		c-9.85,0-19.3,0-28.82,0c2.43-18.05,4.84-35.99,7.32-54.5C922.55,733.26,916.47,733.26,910.2,733.26z M829.27,745.76
		c-1.57,7.85-2.2,15.89-3.28,23.83c-1.17,8.59-2.46,17.16-3.61,25.76c-0.58,4.34-0.99,8.71-1.51,13.38c6.25,0,12,0,18.14,0
		c1.21-8.14,2.4-16.16,3.63-24.43c9.84,0,19.38,0,28.82,0c-1.05,8.25-2.08,16.29-3.13,24.52c6.13,0,12.08,0,18.59,0
		c0.42-3.77,0.74-7.48,1.25-11.16c1.22-8.74,2.54-17.47,3.82-26.2c0.92-6.31,2.18-12.6,2.64-18.94c0.5-7.03,2.71-14.84-5.69-19.48
		c-16.59,0-33.25,0-49.84,0C833.51,735.55,830.38,740.22,829.27,745.76z M875.81,753.19c-0.38,3.21-0.74,6.21-1.14,9.51
		c-9.36,0-18.76,0-28.85,0c0.32-3.32,0.62-6.41,0.92-9.51C856.92,753.19,866.21,753.19,875.81,753.19z"/>
	<path id="VMAX" class="st5" d="M720.71,688.96c-1.1,0-2.2-0.02-3.3-0.05c-0.81-0.03-1.43-0.51-1.66-0.95
		c-0.21-0.4,4.51-25.68,4.78-26.54c0.53-1.72,1.43-2.98,2.93-4.08c1.1-0.81,5.66-1.54,6.21-1.54c0.59,0,1.05,0.09,1.47,0.28
		c0.37,0.17,6.15,14.15,6.32,14.43c0.17,0.29,0.48,0.48,0.82,0.49c0.01,0,0.03,0,0.04,0c0.32,0,0.63-0.16,0.82-0.42
		c0.86-1.21,6.3-9.2,8.48-12.03c1.51-1.96,2.58-2.84,4.21-2.84c0.69,0,2.17,0.18,3.47,0.18c3.27,0,3.03,3.54,2.58,7.36
		c-0.1,0.86-3.68,25.68-3.68,25.68l-9.58,0.1c0.07-1.56,2.81-15.84,2.37-15.84c-0.11,0-10.02,13.84-12.16,15.58
		c-0.28-0.75-6.56-15.32-6.61-15.32c-0.28,0-2.51,14.8-2.7,15.01c-0.24,0.27-0.66,0.42-1.18,0.43
		C723.14,688.94,721.92,688.96,720.71,688.96z M794.26,688.94c0.56,0,1.03-0.17,1.29-0.46c0.16-0.18,0.22-0.4,0.18-0.66
		c-0.28-2.03,4.01-27.34,4-27.81c-0.02-0.96-0.06-1.48-0.64-1.97c-1.44-1.2-2.68-2.12-4.4-2.12c-0.96,0-18.79,0-21.48,0.04
		c-4.8,0.07-8.04,3.29-8.46,8.39c-0.09,1.1-4.18,23.35-3.84,24.58l4.6,0c1.26,0,2.52,0,3.79,0.01c0.52,0,1.47-0.91,1.45-1.28
		c-0.09-1.42,0.9-9.06,1.09-9.32s0.49-0.41,0.81-0.41l13.01,0.09c0.46,0.01,0.86,0.33,0.96,0.78c0.47,2.05-1.07,8.59-0.75,10.13
		c0.66,0,3.76-0.01,4.64-0.01c1.24,0,2.47,0.01,3.7,0.03L794.26,688.94z M787.71,664.92c0.55,0,1,0.45,1,1v2.81c0,0.55-0.45,1-1,1
		h-12.84c-0.5,0-0.93-0.38-0.99-0.88c-0.14-1.16,0.09-2.1,0.68-2.79c0.61-0.7,1.52-1.08,2.73-1.11
		C778.72,664.91,786.67,664.92,787.71,664.92z M836.69,688.92l-7.97-15.96l13.15-16.88h-11.85l-5.86,7.2l-4.55-7.37l-11.83,0
		l8,16.49l-12.57,16.33h11.92l5.67-6.54l4.22,6.72L836.69,688.92z M693.96,689.03c1.75,0,2.16-1.05,2.84-2.19
		c0.9-1.72,16.15-28.24,16.15-28.24s1.91-2.68,0.83-2.68c-0.71,0-7.72,0.01-8.89-0.04l-0.17,0c-1,0-1.54,0.33-2.05,1.27
		c-0.53,0.97-8.27,13.91-8.27,13.91c-0.08,0-0.33-1.15-0.41-1.17c-0.34-0.08-3.69-13.62-3.89-13.76c-0.25-0.18-10.18-0.2-10.18-0.2
		c0,1.02,7.02,31.36,7.67,32.27c0.38,0.54,0.58,0.91,1.4,0.91C689.43,689.11,693.72,689.03,693.96,689.03z"/>
	<path id="numbers" class="st1" d="M915.09,616.07c1.72,7.16,0.06,13.48-2.46,19.45c-1.43,3.39-5.07,4.45-8.72,4.47
		c-7.65,0.04-15.3,0.01-23.02,0.01c-4.56-3.06-5.93-7.04-4.27-12.37c1.15-3.68,1.66-7.55,2.59-11.97c0.67-7.57-0.6-16.3,7.32-22.56
		c9.35,0,18.82,0,28.38,0C920.35,597.15,920.46,607.55,915.09,616.07z M891.98,609.8c4.53,0,8.6,0,12.62,0
		c0.47-1.56,0.88-2.92,1.38-4.56c-4.29,0-8.34,0-12.57,0C892.99,606.57,892.57,607.91,891.98,609.8z M890.22,626.8
		c4.05,0,7.78,0,11.92,0c0.29-1.14,0.56-2.24,0.89-3.56c-4.55,0-8.59,0-12.81,0C890.22,624.43,890.22,625.37,890.22,626.8z
		 M944.53,402.81c-1.63,10.54-3.11,20.17-4.65,30.17c-10.58,0-20.87,0.13-31.16-0.07c-3.64-0.07-5.88-2.69-5.62-6.72
		c0.37-5.87,1.27-11.72,2.1-17.56c0.84-5.98,1.84-11.93,2.83-17.88c0.26-1.56,0.77-3.07,1.16-4.57c12.7,0,24.98,0,38,0
		c-0.78,4.12-1.5,7.94-2.24,11.88c-8.67,0-16.64,0-25.07,0c-0.38,1.48-0.72,2.82-1.22,4.75
		C927.21,402.81,935.27,402.81,944.53,402.81z M917.27,416.18c-0.24,1.35-0.44,2.5-0.65,3.7c4.18,0,7.97,0,12.03,0
		c0.43-1.15,0.85-2.28,1.37-3.7C925.66,416.18,921.7,416.18,917.27,416.18z M847.9,341.72c0.18-1.78,0.33-3.16,0.5-4.85
		c8.65,0,16.92,0,25.31,0c0.61-4.08,1.18-7.83,1.74-11.62c-12.91,0-25.5,0-38.08,0c-1.14,6.5-2.36,12.73-3.28,19
		c-0.57,3.9-0.07,7.61,4.27,9.93c6.22,0,12.67,0,19.37,0c0,1.62,0,3,0,4.86c-8.63,0-17.05,0-25.45,0
		c-0.81,4.45-1.53,8.43-2.27,12.52c12.91,0,25.6,0,38.47,0c1.11-7.63,2.16-14.87,3.36-23.13c-0.93-1.62-2.35-4.1-3.86-6.72
		C860.74,341.72,854.47,341.72,847.9,341.72z M605.74,407c-6.03,0-11.67-0.04-17.31,0.01c-4.56,0.05-8.34,2.92-9.36,7.24
		c-0.82,3.48-1.47,7.01-2.03,10.54c-0.46,2.95-0.67,5.94-1,9.01c12.98,0,25.25,0,37.81,0c0.68-3.58,1.32-7.03,2.09-11.09
		c-8.55-1.65-16.99-0.05-25.46-0.95c0.33-1.23,0.64-2.4,1.01-3.76c5.62,0,11.1-0.05,16.58,0.02c3.56,0.05,6.2-1.02,8.08-4.4
		c3.86-6.95,2.8-14.79,5.16-22.36c-13.06,0-25.48,0-38.39,0c-0.67,3.77-1.34,7.5-2.08,11.67c8.54,0,16.49,0,25.08,0
		C605.85,404.61,605.8,405.66,605.74,407z M680.47,365.87c3.14-2.68,5.83-5.37,5.71-9.96c-0.06-2.37,1.04-4.74,1.42-7.14
		c1.08-6.94,2.06-13.89,2.96-20.01c-2.39-3.72-4.88-4.83-8.13-4.79c-6.65,0.1-13.31,0.03-19.97,0.03c-3.1,0-6.2,0-9.19,0
		c-0.47,4.01-0.86,7.32-1.32,11.17c8.76,0,16.83,0,25.38,0c-0.47,1.92-0.81,3.27-1.2,4.86c-8.55,0-16.67,0-25.13,0
		c-0.68,3.7-1.31,7.11-2.04,11.07c8.59,0,16.68,0,25,0c-0.1,1.54-0.17,2.59-0.26,3.95c-8.65,0-16.92,0-25.41,0
		c-0.63,3.64-1.2,7-1.86,10.82C657.96,365.87,669.25,365.87,680.47,365.87z M638.27,632.92c-9.38,0-18.86,0-28.49,0
		c-2.88-1.78-4.25-4.51-3.73-7.87c1.29-8.21,2.77-16.4,4.21-24.58c0.74-4.2,2.74-7.53,6.84-9.43c9.23,0,18.55,0,28.03,0
		c3.55,2.11,4.39,5.44,3.71,9.29c-1.21,6.89-3.07,13.72-3.67,20.66C644.72,626.33,642.33,629.87,638.27,632.92z M635.26,602.24
		c-4.42,0-8.17,0-12.57,0c-0.99,6.48-1.98,12.91-2.97,19.32c4.85,0,8.72,0,12.72,0c0.56-3.42,1.1-6.45,1.54-9.49
		C634.45,608.91,634.81,605.74,635.26,602.24z M784.13,297.39c-4.88,0-8.94,0-12.67,0c-0.91,5.06-1.74,9.69-2.58,14.36
		c-4.48,0-8.59,0-12.64,0c0.68-4.96,1.33-9.68,2-14.55c-4.63,0-8.26,0-12.25,0c-0.95,4.89-1.89,9.65-2.78,14.43
		c-0.18,0.97-0.08,1.99-0.21,2.97c-0.81,5.96,1.7,9.35,9.34,9.4c4.81,0.03,9.61,0.01,14.48,0.01c-0.91,5.16-1.75,9.89-2.62,14.83
		c4.27,0,8.23,0,12.81,0C779.41,324.81,781.77,311.11,784.13,297.39z M942.66,540.84c4.6,0,8.21,0,12.43,0
		c0.64-4.02,1.3-7.98,1.9-11.95c1.15-7.57,2.06-15.19,3.49-22.72c1.15-6.08,0.56-8.34-4.44-11.99c-10.63,0-21.07,0-31.77,0
		c-0.76,4.2-1.49,8.27-2.29,12.72c8.66,0,16.94,0,25.52,0C945.86,518.48,944.28,529.52,942.66,540.84z M571.22,501.2
		c-0.45,3.6-0.89,7.02-1.37,10.86c3.8,0,6.76,0,9.7,0c-1.64,10.37-3.22,20.42-4.86,30.76c4.52,0,8.14,0,12.56,0
		c2.34-13.7,4.68-27.42,7.1-41.62C586.06,501.2,578.79,501.2,571.22,501.2z"/>
	<circle id="inner-red" class="st5" cx="748" cy="474.46" r="84.21"/>
	<path id="chulo" class="st2" d="M687.5,450.5c0,0,36.58,15.93,40,45c4,34-6.5,55.5-6.5,55.5s214.78-201.82,247.5-233.5l-3.56-0.41
		L755.5,471.5C727.5,432.5,687.5,448.5,687.5,450.5z"/>
</g>
</svg>
